<svg version="1.1" id="Layer_1" xmlns="http://www.w3.org/2000/svg" xmlns:xlink="http://www.w3.org/1999/xlink" x="0px" y="0px"
	 width="100%" viewBox="0 0 63 50" enable-background="new 0 0 63 50" xml:space="preserve">
<path fill="transparent" opacity="1.000000" stroke="none" 
	d="
M63.740463,21.769886 
	C64.000000,30.767300 63.878796,39.537361 64.078354,48.300114 
	C64.133827,50.735928 63.497387,51.103806 61.238083,51.063545 
	C52.473568,50.907387 43.704617,51.000000 34.468658,51.000000 
	C33.648335,50.627419 33.411190,50.192356 33.285370,49.319870 
	C33.354248,48.706669 33.425827,48.468678 33.715904,47.931080 
	C36.390846,46.093834 39.164257,45.293461 42.146591,44.105278 
	C45.470875,42.722408 46.414158,40.684418 44.683868,37.405609 
	C44.207489,36.495533 44.061832,35.836044 44.020290,34.822281 
	C44.061714,34.281048 44.097481,34.069550 44.227161,33.560898 
	C44.539917,32.728348 44.779404,32.195278 44.335396,31.357670 
	C42.886326,29.389404 41.666527,27.621122 39.806900,25.973097 
	C38.774391,25.051128 37.964485,24.375765 36.502579,24.278400 
	C34.550419,24.167837 32.935238,24.045010 31.054329,23.376228 
	C30.500128,23.177231 30.280596,23.092728 29.737213,22.871367 
	C26.370975,21.419245 23.232805,20.904779 19.628345,21.690754 
	C17.094957,22.136265 15.204048,22.853342 15.026037,25.881779 
	C14.407559,28.709085 13.676997,31.148111 12.398769,33.764935 
	C12.188969,34.546398 12.038346,34.981506 11.708522,35.711990 
	C9.194789,39.001450 11.623896,40.737373 13.562793,42.871002 
	C16.370539,45.427380 19.537991,46.906273 22.333733,49.412899 
	C22.454981,49.973858 22.443556,50.208523 22.216066,50.721596 
	C16.045633,51.000000 10.079705,50.780285 4.141777,51.092712 
	C1.174061,51.248867 0.893741,50.259148 0.931704,47.685326 
	C1.092678,36.771358 1.000000,25.853655 1.000000,14.468657 
	C1.366745,13.672381 1.789511,13.462606 2.634563,13.425662 
	C8.082588,15.782305 10.156389,15.106972 11.205974,10.783790 
	C12.059870,7.266638 10.982155,6.209929 7.410375,7.175671 
	C6.144107,7.518045 4.931026,8.052324 3.232943,8.042229 
	C2.399918,7.919988 1.961222,7.732332 1.277081,7.234339 
	C-0.054495,2.072360 1.609416,0.443778 6.859268,0.854587 
	C14.219133,1.430509 21.657751,1.000000 29.531342,1.000000 
	C30.316328,1.320562 30.548899,1.691798 30.694824,2.450706 
	C30.597555,3.421743 30.288734,3.955304 29.573093,4.564332 
	C29.054043,4.959497 28.781950,5.199469 28.424349,5.700272 
	C28.168156,6.435319 28.133621,6.944685 28.328104,7.719556 
	C28.734034,8.731918 29.478231,9.067552 30.204475,9.860304 
	C31.696737,13.875844 33.856861,10.923978 35.904209,10.580307 
	C38.014359,8.970370 37.775532,7.072929 37.331036,4.807626 
	C37.283421,4.252486 37.283321,4.028128 37.343529,3.470993 
	C37.619217,2.477368 38.028496,1.948243 38.764702,1.240681 
	C46.580231,1.000000 54.161263,1.058910 61.740105,0.956328 
	C63.514317,0.932314 64.150345,1.237967 64.056465,3.192676 
	C63.866962,7.138477 64.000000,11.099770 64.000000,15.527336 
	C63.618973,16.328051 63.191616,16.572479 62.342010,16.739229 
	C59.294659,15.981932 56.673546,14.863544 53.432648,15.341475 
	C52.192116,15.422684 51.399124,15.725602 50.582512,16.581039 
	C50.313049,17.168772 50.219921,17.518248 50.189213,18.131054 
	C50.300175,18.715208 50.453629,19.014040 50.878197,19.445105 
	C51.596180,19.872242 52.116493,20.097555 52.895943,20.472742 
	C53.787609,21.097950 54.321793,21.704388 55.345367,22.154909 
	C57.786419,22.677650 59.409954,20.739149 61.857239,20.983671 
	C62.663738,21.105854 63.090466,21.279421 63.740463,21.769886 
z"/>
<path fill="#FCF8F6" opacity="1.000000" stroke="none" 
	d="
M22.460636,51.000000 
	C22.004465,50.817516 22.008928,50.635029 22.023264,50.178913 
	C22.599657,49.036919 23.471668,48.602966 24.751415,48.135883 
	C25.350723,47.980091 25.594727,47.931988 26.210396,47.840370 
	C27.835108,47.718853 29.089825,47.749172 30.727781,47.750015 
	C31.892647,47.824879 32.636089,48.016380 33.632729,48.640366 
	C33.960945,49.343887 33.976627,49.816952 33.996155,50.645012 
	C30.307091,51.000000 26.614182,51.000000 22.460636,51.000000 
z"/>
<path fill="#FAF8F8" opacity="1.000000" stroke="none" 
	d="
M30.372448,3.444327 
	C30.045509,2.704156 30.025089,2.217479 30.002335,1.365401 
	C32.700012,1.000000 35.400028,1.000000 38.550018,1.000000 
	C38.873074,1.536193 38.746143,2.072386 38.403252,2.786686 
	C37.983646,3.127820 37.779995,3.290845 37.239418,3.656134 
	C36.404057,4.034006 35.892136,4.150389 34.972073,4.238463 
	C33.245804,4.297400 31.926094,4.245335 30.372448,3.444327 
z"/>
<path fill="#FBF8F7" opacity="1.000000" stroke="none" 
	d="
M1.000000,7.437500 
	C1.500335,7.015295 2.000670,7.030589 2.874697,7.082216 
	C4.695234,9.157389 4.576943,11.259522 3.139519,13.706885 
	C2.381816,14.010286 1.987014,14.007127 1.296106,14.001984 
	C1.000000,11.958333 1.000000,9.916667 1.000000,7.437500 
z"/>
<path fill="#F9F6F4" opacity="1.000000" stroke="none" 
	d="
M64.000000,21.571537 
	C63.491623,21.983618 62.983246,21.967234 62.095703,21.908634 
	C61.589996,21.674913 61.463463,21.483412 61.212605,20.969555 
	C60.935097,19.966131 60.908760,19.274780 60.944103,18.232651 
	C61.043533,17.422693 61.186619,16.981592 61.626297,16.304232 
	C62.339924,16.033125 62.814045,16.016325 63.644081,15.999762 
	C64.000000,17.714357 64.000000,19.428717 64.000000,21.571537 
z"/>
<path fill="#AF7D5F" opacity="1.000000" stroke="none" 
	d="
M2.966664,14.318583 
	C2.870889,11.996371 2.965161,9.979297 3.153911,7.540385 
	C5.040245,7.452704 6.398313,6.350896 7.808606,5.608789 
	C9.301349,4.823298 10.661699,4.858478 11.990417,5.724294 
	C13.551523,6.741539 13.134064,8.433709 12.927705,9.806372 
	C11.946047,16.336187 8.293359,18.090096 2.966664,14.318583 
z"/>
<path fill="#DEB89E" opacity="1.000000" stroke="none" 
	d="
M11.446636,34.264679 
	C12.043948,31.575741 12.927155,29.134533 13.980113,26.367672 
	C15.173710,24.484619 16.995491,24.004915 18.655704,22.744907 
	C19.370504,22.418430 19.811468,22.357328 20.590746,22.457251 
	C21.887478,23.090523 22.746290,23.821587 24.052315,24.486080 
	C25.798704,26.073999 25.427452,27.666985 24.674255,29.595436 
	C24.351637,30.080776 24.195208,30.254154 23.754383,30.625916 
	C21.392614,31.537800 20.400604,33.301426 19.120945,35.278687 
	C18.421188,35.732891 17.963539,35.880875 17.114639,35.997055 
	C14.973982,35.846607 13.261881,35.482597 11.446636,34.264679 
z"/>
<path fill="#A67255" opacity="1.000000" stroke="none" 
	d="
M61.518906,15.913721 
	C61.970211,16.485670 62.074615,16.921413 62.145481,17.692146 
	C61.961102,18.148512 61.810265,18.269892 61.437416,18.561926 
	C60.841648,18.990496 60.304966,19.095993 60.470661,19.864738 
	C60.910240,20.195467 61.160870,20.396473 61.526413,20.838440 
	C61.665699,21.048983 61.733154,21.455225 61.724846,21.660820 
	C59.525021,21.756252 57.891212,24.146664 55.312092,23.021168 
	C54.642834,21.932714 53.832859,21.653872 52.623180,21.539003 
	C51.606705,21.246271 50.917187,20.909960 50.104340,20.311068 
	C49.842628,19.891953 49.704247,19.735416 49.433846,19.294647 
	C49.296257,18.573151 49.290688,18.135889 49.378708,17.383509 
	C49.950218,16.134918 51.062347,15.836522 51.844383,14.788879 
	C55.196625,14.429079 58.444645,13.054564 61.518906,15.913721 
z"/>
<path fill="#A06B4C" opacity="1.000000" stroke="none" 
	d="
M29.918232,3.459862 
	C31.431337,3.180586 32.796745,3.170339 34.547417,3.303273 
	C36.701622,5.441444 38.093346,7.571684 37.247665,10.774328 
	C34.501289,13.669027 31.837160,13.916186 29.075150,11.209358 
	C30.381145,9.165034 28.257574,9.262740 27.535318,8.205089 
	C27.277094,7.205338 27.241833,6.472060 27.259649,5.373979 
	C27.380270,4.838147 27.447817,4.667116 27.764521,4.377752 
	C28.599297,4.082577 29.184916,3.905735 29.918232,3.459862 
z"/>
<path fill="#D9B295" opacity="1.000000" stroke="none" 
	d="
M11.100304,34.330162 
	C12.956612,33.794910 14.623845,34.294098 16.640678,34.972740 
	C18.750416,36.673729 17.722960,40.116821 21.144567,41.053364 
	C21.679077,41.353760 21.884357,41.496567 22.325844,41.940006 
	C23.032551,43.234821 23.069071,44.253841 22.540152,45.640343 
	C18.368071,47.494808 16.099783,44.193077 12.874668,42.478470 
	C11.888774,40.337349 9.637646,39.021023 10.734894,36.241844 
	C10.982085,35.491978 11.010976,35.067673 11.100304,34.330162 
z"/>
<path fill="#A96546" opacity="1.000000" stroke="none" 
	d="
M43.098160,44.658066 
	C40.203480,45.974915 37.532280,46.997711 34.487148,48.044838 
	C33.490952,48.567276 32.752254,48.470440 31.682627,48.447266 
	C30.915033,48.206520 30.613491,47.892807 30.436893,47.128487 
	C30.047825,46.448147 31.869135,45.588909 29.801908,45.475548 
	C28.002529,44.526886 27.944353,43.175682 28.445011,41.358963 
	C28.957785,40.636799 29.373022,40.355286 30.227268,40.075836 
	C31.100794,39.907112 31.605312,39.891739 32.479500,39.985847 
	C34.485924,40.445251 35.862484,41.526714 37.881134,41.935680 
	C39.620544,42.419231 41.044415,42.709690 42.684425,43.495724 
	C43.099422,43.924541 43.210529,44.144276 43.098160,44.658066 
z"/>
<path fill="#E2C2A6" opacity="1.000000" stroke="none" 
	d="
M12.782473,42.274300 
	C15.767967,43.298912 18.531540,44.608902 21.652515,45.950153 
	C22.647133,45.533825 23.230560,45.801937 24.068771,46.317459 
	C24.788504,47.002548 25.102604,47.563892 25.130795,48.541290 
	C24.256283,49.211060 23.471230,49.567402 22.359655,49.914513 
	C19.050756,48.259399 15.968006,46.762135 13.299542,44.040054 
	C12.666366,43.497059 12.528441,43.056877 12.782473,42.274300 
z"/>
<path fill="#894C3B" opacity="1.000000" stroke="none" 
	d="
M39.679886,25.084793 
	C42.175564,26.247154 43.734856,28.065668 44.833088,30.710777 
	C45.355469,31.372627 45.519478,31.816992 45.386410,32.663742 
	C45.210239,33.179043 45.174343,33.353352 45.018372,33.766083 
	C44.079380,34.787788 43.094818,35.018391 41.615871,34.772865 
	C40.750515,34.452896 40.323906,34.153137 39.721066,33.459358 
	C39.135246,32.450829 38.951111,31.703201 38.749733,30.568933 
	C38.584167,28.501326 37.719429,26.707260 39.679886,25.084793 
z"/>
<path fill="#F2D9C7" opacity="1.000000" stroke="none" 
	d="
M21.217924,23.286827 
	C20.511013,23.063011 20.079506,23.047979 19.324223,23.027031 
	C18.648481,22.615698 18.502848,22.146267 18.780552,21.297764 
	C22.488708,18.901131 25.917175,20.302397 29.677898,21.339340 
	C30.083729,21.704819 30.166924,21.900085 30.065685,22.356083 
	C29.433891,23.081875 28.947739,23.505571 28.211237,24.146114 
	C26.919346,24.957062 25.833492,25.084579 24.379150,24.581646 
	C23.236429,24.051346 22.283413,23.994719 21.217924,23.286827 
z"/>
<path fill="#935337" opacity="1.000000" stroke="none" 
	d="
M40.714264,34.184139 
	C42.050312,33.994480 43.086079,33.996723 44.510071,34.001732 
	C45.003288,34.749023 45.108280,35.493542 45.240837,36.616379 
	C46.116631,38.506340 46.200390,40.045052 45.146477,41.893597 
	C43.138710,42.661526 41.834061,41.684589 40.170410,40.677673 
	C39.372772,39.830429 39.132648,39.121334 39.015171,37.988701 
	C39.028770,37.378681 39.056534,37.136684 39.178013,36.543663 
	C39.531914,35.511288 39.913391,34.906212 40.714264,34.184139 
z"/>
<path fill="#D2A38A" opacity="1.000000" stroke="none" 
	d="
M23.816326,24.262844 
	C25.182360,23.859280 26.353685,23.689207 27.760834,23.254070 
	C28.441490,22.579153 29.024914,22.528845 29.786167,22.194138 
	C30.001177,22.006195 30.024967,21.760540 30.012751,21.635044 
	C30.000534,21.509550 30.425106,21.641914 30.621984,21.745279 
	C31.148378,22.181437 31.382038,22.569937 31.512917,23.368292 
	C30.066910,25.642418 29.584784,28.288866 26.922506,29.712502 
	C25.974432,30.139271 25.309179,30.301331 24.291327,30.138947 
	C24.054630,28.523533 24.133146,27.051451 24.097286,25.282379 
	C23.862478,24.822372 23.742048,24.659351 23.816326,24.262844 
z"/>
<path fill="#E8C9B4" opacity="1.000000" stroke="none" 
	d="
M18.596060,20.963367 
	C18.997034,21.435572 18.996511,21.888443 18.998219,22.681217 
	C18.735943,25.602448 16.242603,24.986755 14.491650,25.984104 
	C13.644495,22.872055 14.306846,20.628553 18.596060,20.963367 
z"/>
<path fill="#A0664D" opacity="1.000000" stroke="none" 
	d="
M30.742722,24.348284 
	C30.935507,23.506929 30.943447,23.030491 30.885124,22.201347 
	C32.476299,22.869505 34.282520,23.204370 36.603790,23.088139 
	C37.594612,23.799004 37.769295,24.552675 37.456032,25.766582 
	C36.002316,27.314230 34.454639,27.709522 32.361065,27.546679 
	C30.979885,26.794710 30.349903,25.970539 30.742722,24.348284 
z"/>
<path fill="#AB7C62" opacity="1.000000" stroke="none" 
	d="
M37.381401,10.932899 
	C37.583199,8.414673 34.573467,6.801352 34.927650,3.801941 
	C35.379555,3.274420 35.826439,3.102386 36.637527,2.959130 
	C37.165222,3.136645 37.328705,3.285383 37.650818,3.725235 
	C39.261307,6.284658 39.894505,8.540399 37.381401,10.932899 
z"/>
<path fill="#E1C0A9" opacity="1.000000" stroke="none" 
	d="
M12.992992,41.617630 
	C13.003113,42.407925 13.001830,42.826931 13.000511,43.558689 
	C11.233137,41.578831 7.095079,40.123341 10.603247,36.003876 
	C10.331749,38.186768 13.076912,39.176067 12.992992,41.617630 
z"/>
<path fill="#945B48" opacity="1.000000" stroke="none" 
	d="
M36.726349,26.373310 
	C36.966759,25.322374 36.983727,24.601685 37.003048,23.520529 
	C38.284851,22.705570 39.031769,23.524080 39.904045,24.627201 
	C38.961159,26.380642 39.340904,27.863941 39.934029,29.689804 
	C38.427628,31.053259 37.492519,30.138510 36.474461,28.646429 
	C36.247704,27.734076 36.305107,27.211081 36.726349,26.373310 
z"/>
<path fill="#FBF9F8" opacity="1.000000" stroke="none" 
	d="
M43.686153,42.104980 
	C45.444767,40.804398 44.573879,39.113312 45.106724,37.346748 
	C48.884041,40.502617 46.577518,42.774429 43.245514,44.930859 
	C42.874683,44.952122 42.920399,44.463856 42.866119,44.224739 
	C42.575180,43.262959 42.882347,42.716526 43.686153,42.104980 
z"/>
<path fill="#AD7A5C" opacity="1.000000" stroke="none" 
	d="
M52.502380,21.841295 
	C53.267403,21.108595 54.073273,19.918781 55.302830,20.522696 
	C55.951241,20.841173 55.640972,21.640041 55.224503,22.511131 
	C54.180073,22.986856 53.314842,22.989180 52.502380,21.841295 
z"/>
<path fill="#B1836B" opacity="1.000000" stroke="none" 
	d="
M51.770012,14.572088 
	C52.078022,15.974577 51.648365,16.982775 49.776459,17.054394 
	C48.460876,14.930137 50.442162,15.104191 51.770012,14.572088 
z"/>
<path fill="#B28468" opacity="1.000000" stroke="none" 
	d="
M27.221035,8.297117 
	C28.713495,8.048624 30.106768,8.166594 29.353706,10.566042 
	C27.526722,10.968491 27.019400,10.080129 27.221035,8.297117 
z"/>
<path fill="#FBF9F8" opacity="1.000000" stroke="none" 
	d="
M45.527260,32.952705 
	C45.117130,32.565193 44.988129,32.125648 44.933929,31.342953 
	C46.322605,31.192842 47.385658,31.491398 45.527260,32.952705 
z"/>
<path fill="#C68A6D" opacity="1.000000" stroke="none" 
	d="
M30.844162,48.181259 
	C31.781036,47.986874 32.558479,47.999561 33.724571,48.040703 
	C34.113220,48.069164 34.014919,48.467579 33.980087,48.669197 
	C33.200378,48.908257 32.455494,48.945698 31.345572,48.901192 
	C30.881931,48.675610 30.783333,48.531971 30.844162,48.181259 
z"/>
<path fill="#B1836B" opacity="1.000000" stroke="none" 
	d="
M49.232925,19.256752 
	C49.566929,19.149385 49.760262,19.355633 49.931416,19.838821 
	C49.708679,19.866690 49.436352,19.684891 49.232925,19.256752 
z"/>
<path fill="#B28468" opacity="1.000000" stroke="none" 
	d="
M27.770611,4.216507 
	C27.951687,4.498620 27.824070,4.695213 27.471775,4.929188 
	C27.075441,4.651150 27.147047,4.372622 27.770611,4.216507 
z"/>
<path fill="#BC9683" opacity="1.000000" stroke="none" 
	d="
M37.910172,3.755709 
	C37.524384,3.887283 37.301727,3.688367 37.071609,3.203753 
	C37.198505,2.948005 37.395275,2.908103 37.889671,2.916497 
	C38.128494,3.141553 38.069695,3.318312 37.910172,3.755709 
z"/>
<path fill="#BB7F60" opacity="1.000000" stroke="none" 
	d="
M31.001486,47.646980 
	C31.003593,47.974190 30.993496,48.396858 30.987015,48.608055 
	C29.611158,48.859180 28.241785,48.899113 26.464300,48.886986 
	C25.058056,47.855885 25.205135,46.666527 25.505161,45.107658 
	C25.664196,44.033131 25.802818,43.320911 26.040735,42.252945 
	C26.245642,41.674488 26.353949,41.452244 26.721239,40.963402 
	C27.452032,40.512321 27.935778,40.481594 28.725372,40.809280 
	C29.229013,42.381107 28.416389,44.068027 30.649776,44.920475 
	C31.132004,45.152328 31.259396,45.322021 31.202244,45.751038 
	C31.011593,46.446831 31.005486,46.883305 31.001486,47.646980 
z"/>
<path fill="#CEA183" opacity="1.000000" stroke="none" 
	d="
M26.545189,44.745579 
	C26.632725,46.041771 26.332436,47.103302 26.044168,48.499878 
	C25.887552,48.864014 25.718916,48.893105 25.295807,48.888458 
	C24.758816,48.405815 24.476295,47.956913 24.089737,47.263088 
	C23.054417,44.748787 24.312841,44.376030 26.545189,44.745579 
z"/>
<path fill="#B38268" opacity="1.000000" stroke="none" 
	d="
M61.880844,20.712282 
	C61.285015,21.045197 60.904335,21.041412 60.237724,21.021420 
	C59.205849,20.001905 59.428696,19.162140 60.680664,18.216614 
	C61.166603,17.988991 61.355690,17.990742 61.828358,18.009813 
	C62.106625,18.809950 62.101307,19.592768 61.880844,20.712282 
z"/>
<path fill="#D5AB8C" opacity="1.000000" stroke="none" 
	d="
M29.321198,40.992561 
	C28.571545,41.018681 28.122225,41.003075 27.335800,40.990959 
	C21.379375,39.365738 22.507322,34.790794 22.746870,30.365356 
	C22.986500,30.022301 23.481478,30.004896 23.728794,30.000257 
	C24.478907,29.735344 24.981699,29.475071 25.747120,29.107895 
	C27.384386,29.550564 28.090172,30.700502 27.944132,32.039452 
	C27.661068,34.634701 29.172979,35.810219 31.380384,37.054352 
	C32.019611,38.376938 31.983055,39.369720 31.121748,40.602264 
	C30.428694,40.901035 30.025114,40.925938 29.321198,40.992561 
z"/>
<path fill="#CEA183" opacity="1.000000" stroke="none" 
	d="
M22.633549,30.055218 
	C24.101439,33.504395 22.822525,37.837704 26.829105,40.673164 
	C26.986258,41.166851 26.973824,41.339252 26.933117,41.769379 
	C25.625387,43.139317 24.227415,43.268406 22.357990,42.271027 
	C21.823938,42.011127 21.656881,42.011189 21.239244,42.009773 
	C19.855433,40.047009 20.666029,37.506546 19.045090,35.335289 
	C18.849691,32.531403 19.867577,30.841980 22.633549,30.055218 
z"/>
<path fill="#D4AA8C" opacity="1.000000" stroke="none" 
	d="
M18.659721,34.997620 
	C21.853714,36.379398 22.496704,38.495533 21.028484,41.651901 
	C16.162182,42.218475 17.108454,38.695580 17.010418,35.434120 
	C17.453022,35.011330 17.891788,35.004902 18.659721,34.997620 
z"/>
<path fill="#E8C9B4" opacity="1.000000" stroke="none" 
	d="
M23.802910,23.759598 
	C24.011034,24.029354 24.006245,24.507788 23.994577,24.746590 
	C22.852833,24.957222 21.612278,25.186857 21.015295,23.411453 
	C21.826611,23.215309 22.710697,23.352575 23.802910,23.759598 
z"/>
<path fill="#AD7A5C" opacity="1.000000" stroke="none" 
	d="
M60.619240,17.996201 
	C60.663830,18.780577 60.350140,19.573912 59.994125,20.686230 
	C58.962818,20.879055 58.060905,20.559868 58.184120,19.354887 
	C58.306179,18.161215 59.312641,18.067343 60.619240,17.996201 
z"/>
<path fill="#D4AA8C" opacity="1.000000" stroke="none" 
	d="
M21.993771,42.408188 
	C23.358299,42.011070 24.725601,42.011070 26.498875,42.019089 
	C26.925526,42.765488 26.946207,43.503864 26.949951,44.611244 
	C25.812393,45.063873 24.537560,44.823975 24.040909,46.675323 
	C23.498127,46.746922 23.010551,46.475677 22.266445,46.092922 
	C22.005459,44.922710 22.001001,43.864014 21.993771,42.408188 
z"/>
<path fill="#AE6F51" opacity="1.000000" stroke="none" 
	d="
M39.751434,36.838806 
	C40.026512,37.737404 40.039776,38.490177 40.064140,39.619232 
	C39.940678,41.109913 39.323246,41.925365 38.227875,42.795021 
	C36.207378,43.260830 34.851917,42.428761 33.303032,41.143108 
	C32.325970,39.888592 32.812168,38.850407 33.326447,37.519684 
	C34.309303,36.273216 35.449577,36.640892 36.780746,36.514359 
	C37.887558,36.587334 38.684975,36.687222 39.751434,36.838806 
z"/>
<path fill="#9C5B3F" opacity="1.000000" stroke="none" 
	d="
M38.316589,43.140190 
	C37.995117,41.820915 38.459145,40.893723 39.774689,40.130875 
	C41.257854,40.479618 42.440472,40.963730 43.807610,41.712959 
	C43.686897,42.468422 43.381660,42.958763 42.944138,43.717369 
	C41.384026,43.981258 39.925838,44.157112 38.316589,43.140190 
z"/>
<path fill="#B4795C" opacity="1.000000" stroke="none" 
	d="
M33.735146,36.888916 
	C33.756077,38.118153 33.515888,39.235237 33.134392,40.670864 
	C32.513039,40.981400 32.032993,40.973392 31.192612,40.920761 
	C30.831779,39.858021 30.831284,38.839901 30.787846,37.439819 
	C30.892357,36.930920 31.039810,36.803989 31.475536,36.655518 
	C32.297386,37.118671 32.862946,37.220276 33.735146,36.888916 
z"/>
<path fill="#AF6F53" opacity="1.000000" stroke="none" 
	d="
M31.301315,45.973999 
	C31.014397,45.839153 31.011093,45.667942 31.006203,45.239685 
	C31.402975,44.419857 31.983065,43.945850 32.454536,44.685543 
	C32.903465,45.389874 32.237514,45.760174 31.301315,45.973999 
z"/>
<path fill="#A0664D" opacity="1.000000" stroke="none" 
	d="
M40.016754,36.738628 
	C39.198696,37.309162 38.402962,37.864735 37.255772,37.091286 
	C32.918468,33.461494 32.669022,30.738445 36.553509,27.778210 
	C37.432579,29.003090 38.146416,29.746510 39.631298,29.990927 
	C39.971149,30.766037 39.992725,31.504314 40.019699,32.612236 
	C40.596615,33.781555 39.937195,34.578548 40.021481,35.688877 
	C40.023098,36.000595 40.020260,36.492630 40.016754,36.738628 
z"/>
<path fill="#9C5B3F" opacity="1.000000" stroke="none" 
	d="
M40.265472,35.830452 
	C38.802876,35.288223 39.283978,34.410721 39.904266,33.256653 
	C40.343239,33.091404 40.600121,33.283043 40.905144,33.774521 
	C40.845646,34.548264 40.676746,35.104290 40.265472,35.830452 
z"/>
<path fill="#E8C9B4" opacity="1.000000" stroke="none" 
	d="
M29.703636,22.024841 
	C29.534523,22.329502 29.067869,22.652809 28.298937,22.982559 
	C28.466471,22.673832 28.936283,22.358662 29.703636,22.024841 
z"/>
<path fill="#C48E70" opacity="1.000000" stroke="none" 
	d="
M32.175701,36.679924 
	C31.734135,36.949928 31.536854,36.966286 31.042240,37.020248 
	C27.824749,37.246143 25.926779,36.622078 26.912809,32.975193 
	C27.174898,32.005852 26.524578,30.789820 26.151463,29.344023 
	C28.969822,28.803034 27.706081,24.715946 30.653820,24.118971 
	C31.215796,24.781872 31.504023,25.580372 31.947178,26.662827 
	C32.805283,30.086588 31.660091,33.288376 32.175701,36.679924 
z"/>
<path fill="#AD7458" opacity="1.000000" stroke="none" 
	d="
M32.069374,37.130939 
	C30.732145,33.838646 30.146168,30.746950 32.041176,27.307394 
	C33.479214,26.639601 34.856319,26.332420 36.591606,26.034153 
	C36.956554,26.471148 36.963314,26.899231 36.967094,27.648300 
	C32.639355,30.616846 35.768494,33.501328 36.851715,36.654884 
	C36.290318,38.184406 35.419048,37.720573 34.270622,37.114155 
	C33.399956,37.110149 32.803642,37.219227 32.069374,37.130939 
z"/>
</svg>