<svg version="1.1" id="Layer_1" xmlns="http://www.w3.org/2000/svg" xmlns:xlink="http://www.w3.org/1999/xlink" x="0px" y="0px"
	 width="100%" viewBox="0 0 1080 2400" enable-background="new 0 0 1080 2400" xml:space="preserve">
<path fill="#EFE1D7" opacity="1.000000" stroke="none" 
	d="
M1.282288,1056.271362 
	C1.000000,881.645752 1.000000,707.291565 1.000000,532.468628 
	C2.372668,530.720520 4.010175,530.937744 5.704038,531.021362 
	C14.636388,531.462463 23.480576,532.901855 32.539516,531.829834 
	C38.922974,531.074402 45.476807,531.926575 51.957485,532.205994 
	C62.062000,532.641541 72.167496,531.188354 82.266327,530.300842 
	C100.664093,528.683960 118.728416,524.912231 136.980026,522.372681 
	C143.901016,521.409607 150.714432,519.647400 157.363007,517.518005 
	C162.914856,515.739929 168.447205,513.968567 174.127594,512.644043 
	C193.422180,508.144867 212.204544,501.765747 230.738693,495.023743 
	C259.932312,484.404327 288.867004,473.048401 316.536285,458.590118 
	C331.844849,450.590820 347.533020,443.205597 362.898224,435.283691 
	C376.772644,428.130432 390.464386,420.551788 403.922424,412.574219 
	C417.210052,404.697662 430.768951,397.275116 444.093658,389.451202 
	C449.831665,386.081970 455.199646,382.096710 461.252930,379.248718 
	C463.394592,378.241089 465.050385,376.556641 466.504608,374.709595 
	C468.047668,372.749725 469.964172,371.626373 472.901611,371.829590 
	C475.921814,372.378021 477.665894,374.224304 479.243011,376.145081 
	C486.397034,384.858093 493.486633,393.672241 501.158234,401.889801 
	C518.502502,420.468475 535.906067,439.014557 555.327454,455.539429 
	C566.314697,464.888031 577.159546,474.419312 588.101501,483.820557 
	C593.190369,488.192871 598.628296,492.386078 604.907837,495.853119 
	C605.449097,496.101868 605.657715,496.216705 606.146484,496.550903 
	C611.469421,503.873138 619.408020,507.398102 626.005554,512.578186 
	C627.301880,513.595947 628.818115,514.333191 630.231567,515.753418 
	C630.999329,516.621765 631.364746,517.434082 632.545898,517.811523 
	C634.991882,518.595032 636.880371,519.635620 638.264282,521.897156 
	C638.913025,522.812927 639.358276,523.496155 640.491394,523.841675 
	C642.234924,524.377380 643.601318,524.981018 645.031128,526.153076 
	C645.868103,526.960938 646.395142,527.631775 647.434021,528.194824 
	C650.241577,529.614441 653.015137,530.466125 655.189941,532.903381 
	C655.885193,533.778625 656.319397,534.479370 657.446655,534.826416 
	C659.163269,535.356445 660.515137,535.937622 661.928833,537.079285 
	C662.738770,537.869263 663.235413,538.529114 664.157227,539.186523 
	C664.940369,539.675415 665.455750,540.015381 666.216003,540.552612 
	C667.515503,541.801392 668.723938,542.590637 670.514282,543.027527 
	C675.189697,544.827759 679.208862,547.128357 683.174194,550.208923 
	C685.792480,553.955261 689.802002,554.450867 693.643188,555.950562 
	C695.035645,556.465454 695.865906,557.224548 696.971619,558.157593 
	C697.872375,558.920959 698.476074,559.551819 699.719421,559.727966 
	C705.579163,561.756775 710.142822,565.688232 716.016785,567.715454 
	C716.931946,568.497192 717.338745,569.347900 718.578552,569.674438 
	C721.168152,570.271545 723.167175,571.351807 725.280762,572.928101 
	C726.718506,575.121216 728.505737,576.207397 731.031860,576.744751 
	C732.437317,577.070068 733.466675,577.468384 734.726440,578.170105 
	C735.721252,578.801025 736.299255,579.489197 737.519653,579.700989 
	C740.508850,580.327209 742.980164,581.400146 745.643799,582.850708 
	C746.542969,583.579895 747.044495,584.266907 748.031677,584.850464 
	C748.466614,585.098328 748.639282,585.198975 749.059814,585.465210 
	C749.925415,586.111328 750.537964,586.601440 751.647095,586.780884 
	C753.421265,587.069092 754.847778,587.470032 756.517334,588.175537 
	C757.545776,588.715515 758.130859,589.363159 759.242920,589.749390 
	C760.354797,590.128784 761.123230,590.491943 762.065796,591.202515 
	C762.939697,591.963013 763.525696,592.582947 764.715698,592.856934 
	C769.779968,594.198059 773.669739,597.364990 778.595520,599.047241 
	C779.638367,599.683105 780.224792,600.406982 781.463379,600.674133 
	C784.578613,601.165161 786.549072,603.408447 789.538818,604.214050 
	C791.286926,605.440430 792.844299,606.288879 794.911255,606.876526 
	C795.429565,607.097656 795.630981,607.198975 796.110718,607.491272 
	C797.982605,609.837646 800.432434,610.119812 803.123291,610.633545 
	C804.817322,610.796326 806.167297,610.967712 807.646545,611.872253 
	C808.583130,612.571533 809.096558,613.276062 810.191284,613.714478 
	C810.878479,613.949585 811.265686,614.101746 811.926025,614.415283 
	C812.905579,615.011536 813.544006,615.584900 814.750671,615.738159 
	C817.792358,616.430237 820.512939,617.049072 823.158325,618.811279 
	C824.307129,620.262024 825.204102,621.485107 827.223145,621.684753 
	C829.116272,621.955505 830.633423,622.362488 832.402466,623.099121 
	C833.474243,623.643860 834.084167,624.302856 835.219238,624.712646 
	C835.939514,624.951538 836.343079,625.112915 837.028137,625.450439 
	C838.701294,626.732422 840.246338,627.478394 842.395203,627.626343 
	C844.931396,627.749390 847.076355,627.999512 849.020142,629.875916 
	C850.468140,631.621094 852.044128,632.400940 854.282471,632.610779 
	C857.346191,632.683167 859.902039,633.301514 862.526611,634.939575 
	C863.599609,635.617676 864.198914,636.367371 865.442139,636.738892 
	C868.605164,637.733765 871.049622,639.631836 874.380310,640.188049 
	C876.013367,641.044678 876.994507,642.338501 878.890137,642.709229 
	C879.627197,642.886292 880.038635,643.019653 880.734009,643.316162 
	C881.754211,643.868347 882.356384,644.522095 883.573608,644.662537 
	C885.472351,644.886475 887.025085,645.149841 888.720764,646.123901 
	C889.895447,646.963440 890.737976,647.715759 892.294434,647.735962 
	C896.961487,649.265503 901.487366,650.211670 905.748413,652.814087 
	C906.720276,653.584961 907.241760,654.379089 908.515137,654.657959 
	C911.330444,655.253296 913.736145,656.037537 916.413635,657.086426 
	C917.504883,657.642639 918.121094,658.324097 919.289612,658.713745 
	C920.861450,659.206726 922.121338,659.598022 923.640198,660.240540 
	C924.690430,660.782166 925.294739,661.463928 926.527771,661.607422 
	C927.979980,661.745422 929.110291,661.806763 930.527466,662.237061 
	C934.550354,664.523438 938.186707,666.844727 942.974365,667.195984 
	C945.945557,667.424438 948.059021,668.981750 950.700378,670.117371 
	C951.743530,670.772644 952.361633,671.486816 953.672363,671.605347 
	C959.731323,672.202209 964.754028,674.883728 970.336182,676.994568 
	C971.478821,677.571289 972.132202,678.282471 973.396973,678.562866 
	C974.899658,678.719055 976.066650,678.793762 977.525208,679.249756 
	C979.726440,680.746338 981.522949,682.252502 984.264160,682.717651 
	C986.675537,683.371277 988.807312,683.611694 991.244934,684.126038 
	C992.449585,684.576538 993.122253,685.277832 994.367676,685.614319 
	C997.699707,686.378967 1000.489380,687.620728 1003.579468,689.026855 
	C1004.627991,689.654968 1005.217163,690.379639 1006.466125,690.589417 
	C1007.918030,690.743347 1009.047913,690.802002 1010.463501,691.217102 
	C1014.280029,693.173889 1017.369385,695.914978 1021.905640,696.190430 
	C1022.704285,696.183472 1023.156677,696.240906 1023.924927,696.468079 
	C1027.074097,698.551331 1030.392334,699.363708 1033.880493,700.607910 
	C1034.891479,700.741028 1035.549561,700.903198 1036.511475,701.233032 
	C1037.622803,701.728638 1038.241699,702.430298 1039.474365,702.671875 
	C1042.096191,703.163940 1044.181885,704.170654 1046.624512,705.205261 
	C1049.419434,707.478455 1052.101196,709.153076 1055.851807,709.201660 
	C1056.660889,709.189880 1057.117065,709.249878 1057.885254,709.487305 
	C1060.476807,711.454102 1062.903442,712.997253 1066.162842,713.623413 
	C1067.427368,713.728760 1068.341064,713.867493 1069.556396,714.268372 
	C1071.219482,715.260925 1072.348145,716.515808 1074.440186,716.669128 
	C1076.738037,717.110840 1078.735718,717.334717 1080.712646,718.758118 
	C1081.000000,879.020935 1081.000000,1039.041870 1081.000000,1199.531372 
	C1080.028809,1200.936035 1078.960327,1201.793335 1077.655518,1202.125488 
	C1066.761108,1204.897949 1057.101074,1210.621338 1047.114624,1215.400757 
	C1031.993408,1222.637329 1016.946228,1230.062744 1003.225647,1240.015015 
	C995.161682,1245.864258 986.883911,1251.412964 978.946716,1257.481079 
	C972.953552,1262.062988 967.824036,1267.526855 962.326904,1272.562134 
	C951.662659,1282.330688 941.420349,1292.572021 931.853699,1303.517212 
	C924.166260,1312.312378 917.280457,1321.697144 910.420837,1331.042603 
	C901.384583,1343.353271 893.593506,1356.535767 886.208862,1369.998047 
	C876.146912,1388.340942 869.208496,1407.954834 861.592407,1427.242188 
	C854.828125,1444.372192 849.724854,1462.166748 846.407410,1480.471924 
	C843.942871,1494.071289 841.746704,1507.668457 839.949036,1521.366089 
	C836.411926,1548.317261 834.517090,1575.345581 835.418945,1602.520264 
	C835.943176,1618.315674 837.562439,1634.051147 839.615723,1649.708618 
	C841.582458,1664.705933 842.616333,1679.806763 844.661926,1694.762939 
	C846.030273,1704.766968 846.854004,1714.888672 849.456055,1724.782837 
	C853.377258,1739.692871 855.891541,1754.957764 860.106140,1769.811890 
	C865.290527,1788.083496 872.038269,1805.777222 878.944641,1823.471680 
	C885.547424,1840.388062 895.002319,1855.596924 904.256653,1870.954346 
	C910.435669,1881.208252 918.448242,1890.211914 926.522278,1899.079102 
	C938.080444,1911.772583 949.943176,1924.093994 963.717896,1934.503296 
	C977.135986,1944.642944 991.090881,1953.815308 1005.772644,1962.066528 
	C1024.717407,1972.713745 1044.985718,1980.339966 1064.656860,1989.322266 
	C1069.907227,1991.719849 1075.999756,1992.249023 1080.721069,1996.726807 
	C1081.000000,2037.687500 1081.000000,2078.375000 1081.000000,2119.531250 
	C1076.525513,2123.759277 1071.592041,2126.700928 1066.363647,2129.376221 
	C1053.957031,2135.724609 1041.633667,2142.353027 1028.864380,2147.818359 
	C1012.211121,2154.946289 995.948975,2163.086914 978.520020,2168.429688 
	C972.084534,2170.402588 965.896729,2173.339844 959.592407,2175.781006 
	C949.638428,2179.635010 939.418213,2182.650635 929.460510,2186.442871 
	C918.724854,2190.531494 907.635559,2193.601562 896.719604,2197.173584 
	C890.856506,2199.092529 884.888977,2200.668701 879.544556,2203.889648 
	C878.540955,2204.494385 877.454163,2204.919678 876.307373,2205.183838 
	C849.696899,2211.314941 823.514954,2218.967773 797.406311,2226.945068 
	C777.985291,2232.879639 758.414734,2238.602295 738.681396,2243.115723 
	C726.047424,2246.005859 713.741516,2250.071533 701.114502,2252.964600 
	C688.382568,2255.881836 675.715576,2259.673584 663.046326,2263.154297 
	C642.988647,2268.665527 623.276550,2275.519775 602.972778,2279.976074 
	C586.318665,2283.631348 570.546448,2289.916992 554.191284,2294.330811 
	C542.601624,2297.458740 531.260010,2301.377930 519.665771,2304.432617 
	C511.244324,2306.651367 505.303070,2302.870117 503.407227,2294.352783 
	C502.627380,2290.849121 501.393280,2287.676514 498.809082,2285.105225 
	C497.982788,2284.283203 497.191132,2283.350830 496.773926,2282.274658 
	C492.272888,2270.666016 482.975464,2261.753662 478.238831,2250.504883 
	C474.184967,2240.877686 466.465302,2233.612061 463.131165,2223.685791 
	C461.548676,2218.974121 457.324249,2215.645996 454.994446,2211.158447 
	C448.550629,2198.746338 442.612396,2186.065674 436.587555,2173.475586 
	C428.776825,2157.153564 420.400085,2141.037598 413.777222,2124.172607 
	C410.933014,2116.930176 407.684875,2109.789062 406.159912,2102.012207 
	C405.010223,2096.149414 402.468781,2090.604980 400.736389,2084.898438 
	C397.665863,2074.783203 393.378906,2065.095215 391.765137,2054.417480 
	C389.987793,2042.657349 388.975189,2030.545532 383.491272,2019.591553 
	C382.891998,2018.394409 382.668793,2017.021118 382.735626,2015.690063 
	C383.188202,2006.676880 382.670563,1997.595215 381.415161,1988.788940 
	C378.862915,1970.885498 380.724457,1952.867188 378.817535,1934.997192 
	C378.067291,1927.966431 378.940918,1920.988525 380.192993,1914.117432 
	C381.510254,1906.888306 382.527039,1899.663208 382.670319,1892.319092 
	C382.709717,1890.299438 382.723267,1888.139282 383.983429,1886.552124 
	C387.696350,1881.875610 388.657684,1876.354248 389.386047,1870.700439 
	C389.598480,1869.051514 389.898773,1867.385498 390.512695,1865.836548 
	C398.268677,1846.264038 403.314819,1825.545898 415.077332,1807.664551 
	C415.534241,1806.969971 416.036255,1806.236938 416.205780,1805.442505 
	C419.730682,1788.925049 431.848114,1776.780396 438.637054,1761.845703 
	C441.938446,1754.583252 446.262299,1747.629028 449.224945,1740.048584 
	C451.056030,1735.363281 454.491486,1731.573486 457.352600,1727.491821 
	C459.178619,1724.886963 461.230164,1722.377075 462.224091,1719.385498 
	C465.509003,1709.498901 470.842041,1700.405884 476.545135,1692.113037 
	C482.711121,1683.146851 484.477814,1672.354248 490.954742,1663.828613 
	C491.654114,1662.908081 492.153046,1661.787720 492.408295,1660.658691 
	C495.940399,1645.035034 502.546844,1630.391602 507.146576,1615.084229 
	C510.326782,1604.500610 510.689392,1594.227417 510.588165,1583.654419 
	C510.459137,1570.175415 511.751709,1556.625610 509.595642,1543.232910 
	C508.070740,1533.761108 508.571075,1523.906006 504.461182,1514.886719 
	C503.698212,1513.212524 503.676971,1511.315552 503.658844,1509.475464 
	C503.637421,1507.298950 503.546509,1505.094360 502.867035,1503.042725 
	C497.015411,1485.374512 495.087799,1466.436157 486.443176,1449.726440 
	C482.082520,1441.297363 478.659302,1432.463257 474.206116,1424.107056 
	C471.777924,1419.550659 470.951080,1414.377197 468.187012,1409.879639 
	C464.798798,1404.366333 462.447083,1398.209473 457.630310,1393.618896 
	C457.274384,1393.279663 456.924103,1392.830933 456.824066,1392.366821 
	C454.403717,1381.139648 444.892090,1374.191772 439.945709,1364.439209 
	C437.032166,1358.694458 431.511719,1354.724121 427.845184,1349.265747 
	C420.264282,1337.980225 411.710754,1327.358154 403.957214,1316.171387 
	C402.042664,1313.409180 399.687012,1311.075073 396.950775,1309.107666 
	C391.331238,1305.067139 386.400055,1300.437866 383.820038,1293.769287 
	C383.277954,1292.368286 382.415955,1290.915527 381.011719,1290.353882 
	C372.148132,1286.809326 367.348358,1278.485474 360.631195,1272.522217 
	C351.347839,1264.280518 342.317932,1255.594238 333.592010,1246.642944 
	C328.033447,1240.940918 321.074158,1236.305664 314.767273,1231.160889 
	C313.608826,1230.215942 312.039124,1229.632935 311.217590,1228.428101 
	C305.124054,1219.492188 294.841156,1215.529175 287.353973,1208.205933 
	C283.356079,1204.295532 278.762695,1200.819336 273.427704,1198.607910 
	C271.566528,1197.836548 269.949921,1196.558105 268.675293,1195.009766 
	C260.894623,1185.557861 250.340836,1179.797119 240.172516,1173.535278 
	C236.604797,1171.338257 233.636261,1168.328857 230.123459,1166.133667 
	C217.584045,1158.297607 206.240494,1148.695923 193.242035,1141.529541 
	C178.689880,1133.506592 164.096802,1125.583740 148.921204,1118.784668 
	C148.464828,1118.580200 147.964005,1118.425049 147.581940,1118.116211 
	C136.277527,1108.981323 121.699913,1106.152344 109.652115,1098.438721 
	C107.831146,1097.272827 105.653610,1096.789307 103.510986,1096.397827 
	C101.207695,1095.976929 98.792885,1095.617554 96.808517,1094.463745 
	C87.288338,1088.928589 76.672035,1085.768433 67.014915,1080.598389 
	C60.322453,1077.015503 53.099648,1075.028931 45.980240,1072.780884 
	C40.734299,1071.124512 35.486576,1069.535889 30.398190,1067.436279 
	C23.009554,1064.387573 15.686852,1061.174438 7.814054,1059.453491 
	C5.582046,1058.965454 3.232278,1058.397339 1.282288,1056.271362 
z"/>
<path fill="#E9D6CD" opacity="1.000000" stroke="none" 
	d="
M1.000000,1056.468628 
	C13.598215,1059.130981 25.641365,1063.842285 37.601032,1068.803711 
	C42.970570,1071.031372 48.676254,1072.329346 54.226257,1073.900635 
	C64.857796,1076.910522 73.715080,1083.863647 84.510605,1086.496582 
	C89.230202,1087.647827 92.602745,1092.438354 97.682533,1093.325928 
	C109.055908,1095.313110 118.449867,1101.924561 128.742630,1106.416870 
	C144.909851,1113.473267 159.705368,1123.287842 175.698135,1130.593262 
	C187.843063,1136.140869 199.380859,1142.751465 209.972168,1150.448853 
	C219.062302,1157.055176 228.644272,1162.973999 237.631256,1169.762451 
	C244.949432,1175.290283 252.704742,1180.456543 260.620422,1185.231201 
	C263.106323,1186.730713 265.304871,1188.402466 266.882446,1190.804810 
	C269.339996,1194.547363 272.616638,1197.208984 276.789398,1198.830078 
	C281.361908,1200.606812 284.932373,1204.046875 288.368073,1207.209961 
	C292.821136,1211.309692 297.985413,1214.269653 302.585327,1217.991699 
	C308.973755,1223.160889 314.223480,1229.682861 320.974182,1234.534180 
	C322.443542,1235.590088 323.435944,1237.315918 324.915802,1238.349976 
	C339.294952,1248.397583 350.454742,1261.919556 363.299072,1273.614868 
	C367.305023,1277.262451 372.205719,1279.911133 374.628326,1285.098755 
	C374.760193,1285.381226 375.055115,1285.707520 375.335968,1285.782959 
	C382.932587,1287.819580 385.449585,1294.438110 389.123108,1300.300049 
	C391.150269,1303.534790 394.704102,1305.992310 397.958557,1308.236328 
	C402.768677,1311.552856 405.734406,1316.262817 408.997772,1320.860840 
	C414.917694,1329.201782 421.646912,1337.026123 426.954773,1345.727051 
	C431.992523,1353.985352 440.353973,1359.671387 443.990967,1368.874878 
	C444.469849,1370.086548 445.192078,1371.354248 446.151154,1372.199097 
	C451.927155,1377.286743 454.394165,1384.227905 457.838165,1390.823364 
	C461.220551,1397.300781 465.827301,1403.290649 469.672913,1409.679443 
	C472.896881,1415.035400 474.406891,1420.968262 476.884827,1426.505249 
	C483.573944,1441.451904 493.153473,1455.495239 495.989227,1471.717407 
	C498.388672,1485.443481 504.175201,1498.152466 505.642639,1512.242188 
	C506.500061,1520.474731 508.891449,1528.995850 510.248077,1537.447998 
	C511.058868,1542.499390 511.805420,1547.612671 511.922089,1552.713135 
	C512.173584,1563.706909 511.744751,1574.718140 512.071167,1585.708008 
	C512.403137,1596.883545 511.467499,1607.641602 507.559479,1618.339966 
	C503.695892,1628.916626 499.618530,1639.611694 496.895355,1650.393311 
	C494.121124,1661.376831 486.799805,1670.150146 484.731293,1681.168091 
	C484.219940,1683.891602 482.438690,1686.275635 480.296722,1688.284790 
	C479.114319,1689.393799 477.935486,1690.791138 477.426544,1692.286987 
	C474.261841,1701.587769 467.059814,1708.805054 464.263672,1718.315918 
	C462.548553,1724.149780 458.112976,1728.505493 454.845917,1733.472656 
	C452.740875,1736.673096 450.540741,1739.714722 449.262390,1743.382935 
	C444.499634,1757.049683 435.409332,1768.470459 429.357513,1781.415283 
	C425.868927,1788.877319 419.235168,1794.428223 418.190430,1803.610107 
	C417.527039,1809.440430 412.550232,1814.712158 409.839417,1820.392578 
	C405.517090,1829.449707 400.361023,1838.189575 398.713043,1848.332886 
	C398.176544,1851.635254 396.772552,1854.652344 395.207397,1857.613037 
	C392.143433,1863.408936 390.442108,1869.619751 389.998566,1876.164917 
	C389.814667,1878.879150 389.272583,1881.739380 387.494385,1883.609619 
	C384.281250,1886.988647 383.898834,1890.815552 383.947906,1895.108521 
	C384.050598,1904.093384 381.593536,1912.791016 380.555298,1921.656860 
	C379.932404,1926.975708 379.673645,1932.203247 380.628479,1937.495117 
	C380.979401,1939.439941 381.053589,1941.471313 380.973083,1943.451660 
	C380.188812,1962.747314 382.088440,1981.898682 383.936432,2001.056885 
	C384.127655,2003.039307 384.055573,2005.056274 383.987274,2007.053101 
	C383.769897,2013.410767 384.575500,2019.302734 387.350891,2025.375854 
	C390.835846,2033.001709 390.844879,2041.800171 392.745575,2050.026367 
	C394.442108,2057.369141 395.791931,2064.672852 397.973206,2071.991455 
	C401.513031,2083.868652 406.021942,2095.434326 409.247223,2107.447266 
	C412.838440,2120.823242 418.769806,2133.557861 425.247681,2145.937012 
	C429.060272,2153.222656 432.471313,2160.751221 435.541046,2168.380127 
	C437.298767,2172.748535 439.820557,2176.628906 441.873077,2180.789795 
	C446.574371,2190.319336 450.305389,2200.447998 455.980286,2209.344971 
	C462.186279,2219.074463 466.211670,2230.094238 474.083191,2238.864258 
	C478.027130,2243.258545 478.792511,2249.589844 482.057129,2254.719482 
	C487.700562,2263.586670 493.737061,2272.226807 498.409637,2281.820068 
	C500.967194,2287.071045 504.425232,2291.715332 505.571136,2297.748779 
	C506.366089,2301.934326 513.200806,2304.826660 517.973877,2303.466553 
	C527.869507,2300.646729 537.723572,2297.676270 547.559631,2294.653809 
	C562.097900,2290.186523 576.579407,2285.532715 591.144043,2281.154541 
	C594.921936,2280.019043 598.917847,2279.606201 602.815857,2278.873779 
	C613.774841,2276.813965 623.991394,2272.198242 634.789673,2269.588135 
	C652.164490,2265.388672 669.267212,2260.163818 686.552734,2255.621338 
	C700.419373,2251.977539 714.206177,2247.645264 728.088806,2244.131592 
	C748.468994,2238.972900 768.714111,2233.424072 788.893738,2227.571289 
	C807.364197,2222.214355 825.761597,2216.534668 844.421143,2211.928467 
	C854.998962,2209.317383 865.157715,2205.186035 876.103271,2203.759277 
	C880.682495,2203.162598 884.590576,2199.492432 889.230530,2198.008057 
	C908.658691,2191.793457 928.019653,2185.368164 947.407227,2179.026123 
	C954.631409,2176.662842 962.184387,2174.463135 968.841919,2171.390869 
	C983.285767,2164.725586 998.527405,2160.195801 1012.904297,2153.367188 
	C1023.224487,2148.465576 1033.816528,2144.039551 1044.096436,2138.971680 
	C1052.460571,2134.848145 1060.908325,2130.893311 1069.257202,2126.739746 
	C1073.103882,2124.826172 1075.952148,2121.215332 1080.643188,2120.037598 
	C1081.000000,2121.388916 1081.000000,2122.777832 1081.000000,2124.583496 
	C1077.935791,2127.915039 1074.098511,2129.471680 1070.440430,2131.456543 
	C1062.706177,2135.653320 1054.826538,2139.541260 1047.031128,2143.604248 
	C1028.988892,2153.008057 1009.875244,2159.902588 991.307922,2168.069092 
	C975.141296,2175.179443 958.399536,2180.735352 941.742615,2186.495605 
	C927.292786,2191.492676 912.813904,2196.406250 898.204163,2200.969727 
	C886.153137,2204.733887 874.238831,2209.082520 862.086853,2212.547119 
	C841.438049,2218.433594 820.872009,2224.632080 800.169128,2230.283936 
	C787.342651,2233.785156 774.394348,2237.047119 761.570923,2240.553223 
	C746.977661,2244.543457 732.328491,2248.464355 717.881287,2253.024414 
	C716.928162,2253.325195 715.981873,2253.682861 714.999695,2253.849609 
	C699.864624,2256.415771 685.664307,2262.581543 670.708496,2265.641357 
	C648.973877,2270.087646 628.031311,2277.331299 606.633850,2282.944824 
	C590.432068,2287.195068 574.638672,2293.334961 558.386353,2297.332520 
	C541.891113,2301.389893 526.443665,2308.981934 509.429169,2311.080811 
	C500.073151,2312.235107 491.531372,2316.292725 482.785004,2319.461426 
	C468.440338,2324.658203 454.202423,2330.210449 439.775299,2335.121094 
	C424.372192,2340.364014 409.350800,2346.579834 394.274597,2352.552734 
	C382.454651,2357.235352 370.730499,2362.463867 359.176208,2367.978516 
	C349.886261,2372.412598 340.613770,2376.911133 331.723785,2381.998779 
	C321.510620,2387.844238 310.556030,2392.580078 301.284302,2400.727783 
	C231.645767,2401.000000 162.291550,2401.000000 92.468658,2401.000000 
	C91.580994,2400.480957 91.054512,2399.968018 91.009361,2399.294189 
	C90.333260,2389.201416 86.549324,2379.869141 84.067032,2370.211182 
	C82.446915,2363.907715 80.126671,2357.821045 78.530869,2351.580566 
	C76.425346,2343.347168 74.153877,2335.233887 70.957176,2327.369141 
	C63.762947,2309.669678 58.154579,2291.369873 50.214512,2273.930664 
	C46.790424,2266.410156 43.954662,2258.522217 40.638012,2250.948730 
	C36.840088,2242.276123 32.672451,2233.732178 29.031858,2224.974121 
	C25.717945,2217.001709 21.466900,2209.479248 18.261988,2201.433838 
	C16.389505,2196.733154 13.575509,2192.303467 11.126105,2187.806152 
	C7.538394,2181.218506 5.583218,2173.900146 1.254243,2167.291992 
	C1.000000,1796.979126 1.000000,1426.958130 1.000000,1056.468628 
z"/>
<path fill="#D3C6BD" opacity="1.000000" stroke="none" 
	d="
M474.111206,372.591553 
	C470.967834,372.615631 468.618103,373.350525 466.974670,376.331512 
	C466.053223,378.002930 464.328522,379.225739 462.536896,380.249939 
	C449.436005,387.739227 436.366730,395.284363 423.319244,402.866547 
	C409.596924,410.840851 396.051544,419.132141 382.164795,426.807159 
	C369.978516,433.542389 357.464325,439.690704 345.027557,445.964600 
	C327.579773,454.766388 310.327606,464.023651 292.494049,471.968903 
	C280.872314,477.146606 269.085052,482.108429 257.037292,486.435608 
	C249.621567,489.099121 242.204971,492.100250 234.800873,494.905640 
	C222.744583,499.473663 210.199600,502.736664 198.060013,507.104004 
	C183.112991,512.481323 167.578796,515.710449 152.383545,520.165405 
	C137.474274,524.536560 121.837975,525.659729 106.581963,528.407288 
	C95.796158,530.349670 84.946777,531.330566 74.163704,532.446411 
	C65.741982,533.317871 57.197483,534.735535 48.429916,533.345886 
	C41.836021,532.300720 34.907524,532.984985 28.073652,533.567627 
	C20.890850,534.179993 13.553570,533.012817 6.286519,532.577698 
	C4.807609,532.489136 3.340837,532.197876 1.434234,532.000000 
	C1.000000,356.589813 1.017196,181.179596 0.891741,5.769490 
	C0.888875,1.762396 1.625957,0.879043 5.725884,0.884677 
	C111.838005,1.030507 217.950363,1.000000 324.531342,1.000000 
	C327.734100,6.266048 326.502472,12.112092 327.021973,17.627733 
	C327.804749,25.938026 329.148010,34.121777 330.410461,42.342434 
	C333.264587,60.927246 336.593811,79.418327 341.238770,97.648361 
	C345.092987,112.774963 349.162720,127.837631 353.431641,142.859787 
	C356.992065,155.388809 362.677307,167.134018 365.922729,179.641006 
	C370.309418,196.546005 378.770782,211.702408 385.332642,227.647278 
	C389.475830,237.714996 395.023315,247.314072 399.698761,257.204529 
	C408.708527,276.263702 419.748627,294.169556 430.865875,311.918335 
	C443.030457,331.339233 455.808746,350.523285 471.185364,367.720673 
	C472.396942,369.075714 473.855804,370.271088 474.111206,372.591553 
z"/>
<path fill="#FEFDF6" opacity="1.000000" stroke="none" 
	d="
M1081.000000,1996.531372 
	C1064.554688,1990.808228 1048.495850,1983.697632 1032.347290,1976.786255 
	C1020.736450,1971.817017 1009.225403,1966.455688 998.608765,1959.871826 
	C988.557922,1953.638794 978.363770,1947.469482 968.932800,1940.012573 
	C957.715210,1931.142944 946.425171,1922.447876 936.648682,1912.030151 
	C924.895264,1899.505493 912.749084,1887.167969 903.529968,1872.612671 
	C891.462830,1853.560791 881.083496,1833.637573 872.992615,1812.415405 
	C866.245178,1794.716919 860.462402,1776.793335 855.813293,1758.505371 
	C851.836304,1742.861328 848.257446,1727.080444 845.399292,1711.198853 
	C843.209656,1699.032104 842.220581,1686.632446 841.054565,1674.302612 
	C839.530151,1658.182007 837.436523,1642.142944 835.375977,1626.086914 
	C834.070984,1615.918457 834.274719,1605.542114 834.041809,1595.253540 
	C833.706787,1580.456055 833.782227,1565.635254 835.118958,1550.899658 
	C836.252686,1538.401489 838.801819,1526.025146 839.779053,1513.520996 
	C841.257874,1494.598267 845.609558,1476.231079 850.220947,1457.993896 
	C854.635254,1440.536011 860.756409,1423.512207 868.409485,1407.112061 
	C871.633240,1400.203857 873.395996,1392.730103 876.829102,1385.845703 
	C884.295715,1370.873047 892.193481,1356.213623 901.123535,1342.013550 
	C906.796936,1332.992065 913.674744,1324.967529 919.723938,1316.294434 
	C926.614136,1306.415527 934.838440,1297.392212 943.435120,1288.865601 
	C952.627930,1279.747559 961.864014,1270.638428 971.581482,1262.094482 
	C980.374878,1254.363037 989.915222,1247.559692 999.561157,1240.821167 
	C1012.001709,1232.130493 1025.240601,1225.126953 1038.505249,1218.022095 
	C1042.593140,1215.832520 1046.601807,1213.325562 1050.942261,1211.810913 
	C1060.898560,1208.336914 1069.618408,1201.828979 1080.611206,1200.008545 
	C1081.000000,1465.354248 1081.000000,1730.708496 1081.000000,1996.531372 
z"/>
<path fill="#FEFDF6" opacity="1.000000" stroke="none" 
	d="
M945.754578,1.289121 
	C989.469360,1.000000 1032.938843,1.046263 1076.407837,0.914309 
	C1079.979126,0.903468 1081.111084,1.440636 1081.107910,5.401778 
	C1080.981567,165.622009 1081.000000,325.842346 1081.000000,486.531342 
	C1079.752441,488.074677 1078.511719,487.426849 1077.251587,487.009430 
	C1054.989136,479.634674 1032.558594,472.994659 1009.373230,468.978638 
	C997.911194,466.993317 986.606262,464.153931 975.076721,462.327637 
	C961.588074,460.190979 947.900574,459.636047 934.510925,457.132843 
	C922.557922,454.898132 910.585754,452.802185 898.488831,452.102631 
	C888.815674,451.543213 879.519470,448.955292 869.935913,448.103943 
	C866.123840,447.765350 862.342651,446.800018 858.828003,445.276062 
	C853.539917,442.983124 847.974609,441.942993 842.341675,441.491913 
	C830.213989,440.520752 818.924316,436.290436 807.809570,432.046875 
	C797.738831,428.201904 787.519531,424.651825 777.641235,420.316925 
	C770.201843,417.052307 762.684204,413.763824 756.650146,408.028229 
	C755.924927,407.338928 755.255798,406.395813 754.337524,406.154846 
	C747.207336,404.283844 742.046204,399.277100 736.128784,395.361755 
	C729.838806,391.199951 724.194641,386.305786 718.476868,381.549957 
	C709.983032,374.485107 702.559875,366.173981 695.513062,357.687866 
	C685.661072,345.823669 676.436096,333.416077 667.385315,320.939514 
	C658.409546,308.566193 651.375061,294.913269 644.638855,281.169495 
	C643.903931,279.670044 643.105652,278.169098 642.923157,276.498810 
	C642.607300,273.607330 641.074768,271.752655 638.693237,270.127472 
	C634.368530,267.176239 634.283936,264.476105 638.138733,260.867035 
	C643.129089,256.194855 648.741150,252.288391 654.160339,248.153030 
	C667.098755,238.279922 680.093018,228.472061 693.168884,218.790344 
	C702.798889,211.659973 712.022949,204.028488 721.628967,196.874756 
	C735.088684,186.851028 748.302368,176.494446 761.433411,166.030060 
	C773.132385,156.706894 783.207397,145.513611 795.791504,137.231064 
	C801.005310,133.799438 805.555298,129.220612 810.291382,125.064743 
	C819.647705,116.854538 829.528259,109.276550 838.844238,101.056908 
	C848.560852,92.483742 858.189880,83.786896 867.418945,74.643929 
	C873.526367,68.593559 879.750793,62.456276 887.448792,58.241665 
	C888.921631,57.435276 890.255798,56.426540 891.340393,55.143196 
	C903.433044,40.835342 918.761658,29.898977 931.643372,16.443022 
	C936.319458,11.558604 942.141724,7.689301 945.754578,1.289121 
z"/>
<path fill="#D3C6BD" opacity="1.000000" stroke="none" 
	d="
M338.757324,1.306865 
	C538.687561,1.000000 738.375122,1.000000 938.531372,1.000000 
	C939.738342,1.789978 940.098389,2.723342 940.020142,4.182718 
	C939.230469,7.117272 936.845520,8.212858 934.900269,10.164089 
	C932.724854,11.565276 930.908264,12.833186 929.823059,15.302551 
	C929.227295,16.166380 928.677673,16.575117 927.721313,17.011951 
	C926.774048,17.367813 926.024658,17.421789 925.570068,17.906590 
	C918.739746,25.189749 910.384644,30.890934 903.824829,38.953453 
	C903.146545,39.773750 902.591125,40.205002 901.685303,40.750946 
	C898.495117,42.073162 896.704590,44.451267 894.611572,47.012302 
	C894.189209,47.409840 894.003967,47.551357 893.516602,47.868217 
	C884.807129,54.521122 876.924438,61.561214 869.827271,69.949905 
	C869.152710,70.766930 868.600525,71.196747 867.699951,71.739807 
	C864.562195,73.063034 862.716858,75.315079 860.782043,77.970169 
	C860.124268,78.772110 859.583313,79.192291 858.697021,79.717644 
	C856.898438,80.441132 855.693848,81.331520 854.906250,83.168640 
	C854.476685,83.844208 854.173828,84.186768 853.544556,84.690933 
	C848.010803,87.871887 843.774597,92.002182 839.739319,96.880234 
	C839.327881,97.281494 839.148438,97.425369 838.673218,97.743042 
	C836.391968,98.625748 835.002869,100.024406 833.712708,102.048462 
	C833.049744,102.842834 832.506836,103.259598 831.622925,103.787941 
	C828.908020,105.102432 826.772888,106.623985 824.879272,108.980240 
	C823.905151,110.299156 823.130920,111.357819 821.896240,112.434387 
	C820.534119,113.197556 819.442017,113.786903 818.496582,115.084946 
	C818.099854,115.433113 817.926025,115.555672 817.472778,115.832260 
	C816.164551,116.372643 815.359070,117.025055 814.622192,118.257416 
	C812.841980,120.487488 811.016235,122.173119 808.496948,123.571182 
	C804.741211,125.220673 802.088379,127.647217 799.776184,130.999664 
	C799.102600,131.808868 798.551758,132.234543 797.654541,132.775314 
	C794.824829,134.078262 792.850525,135.881317 791.013550,138.355469 
	C789.762756,140.607880 788.063538,141.831650 785.752563,142.858765 
	C777.861755,147.612869 771.734741,153.991013 764.777588,159.896973 
	C764.354797,160.288330 764.172913,160.429077 763.695068,160.740982 
	C761.443970,161.615906 760.031189,162.950638 758.796936,164.985474 
	C757.935181,166.157089 757.105042,166.879837 755.867493,167.617737 
	C754.399658,168.228668 753.356323,168.867462 752.505188,170.265381 
	C751.843872,171.001205 751.309204,171.387848 750.443604,171.895020 
	C743.912781,175.924103 738.470520,180.789978 732.767700,185.871002 
	C732.361877,186.267334 732.186035,186.409821 731.720581,186.723465 
	C729.255676,187.885254 727.080994,188.876846 725.608276,191.346878 
	C723.047119,194.768326 720.370605,197.536774 716.190857,198.925659 
	C714.645020,199.263123 713.510742,199.671661 712.650330,201.097961 
	C712.037720,201.812256 711.545105,202.194366 710.739136,202.675980 
	C709.337524,203.291138 708.251892,203.828568 707.140137,204.900452 
	C706.755615,205.229019 706.597900,205.355515 706.195679,205.659103 
	C705.082764,206.351532 704.348755,207.016083 703.533081,208.045624 
	C703.159790,208.390869 702.997070,208.514206 702.574097,208.797028 
	C701.795349,209.264526 701.258179,209.544250 700.578003,210.150238 
	C699.871643,210.710251 699.352905,211.010284 698.602905,211.494202 
	C697.709656,212.123154 697.193298,212.708984 696.589783,213.637512 
	C695.959045,214.375473 695.407898,214.704330 694.497375,215.085495 
	C688.133301,218.485931 682.958008,222.908264 677.764709,227.867126 
	C677.354431,228.269531 677.175842,228.414246 676.702209,228.733063 
	C674.730103,229.563019 673.242126,230.510620 671.718201,232.007080 
	C671.289429,232.355133 671.108765,232.481522 670.640686,232.766312 
	C669.336853,233.320709 668.464539,233.912979 667.577148,235.027588 
	C667.173279,235.386581 666.997742,235.513657 666.538208,235.795822 
	C664.790405,236.449158 663.721436,237.436356 662.651855,238.927689 
	C662.271484,239.301300 662.104614,239.434464 661.662415,239.727127 
	C659.993774,240.408325 658.832703,241.228027 657.823730,242.749954 
	C657.460388,243.137085 657.300598,243.278534 656.861572,243.576569 
	C655.250732,244.253967 653.670471,244.366104 652.809204,246.209595 
	C651.602051,248.228378 650.508789,249.918228 648.203247,250.843445 
	C646.847473,251.232544 645.791016,251.478714 644.647583,252.370377 
	C644.186707,252.691071 643.997620,252.816772 643.513367,253.121048 
	C641.402649,254.184708 639.770325,255.326965 638.420837,256.835754 
	C627.887756,268.612152 614.282043,276.532715 601.941895,286.052979 
	C590.086792,295.199066 578.094849,304.185852 565.949219,312.903076 
	C557.630188,318.873779 549.817993,325.800598 540.222412,329.946533 
	C535.581787,331.951599 532.155579,335.786041 528.069458,338.644653 
	C517.163269,346.274567 505.251770,352.412048 494.995300,360.991241 
	C493.697205,362.076996 492.130890,362.616882 490.497559,363.063080 
	C486.081390,364.269562 485.735687,365.378204 488.522430,369.150116 
	C491.199554,372.773743 494.564301,375.837433 497.241760,379.424591 
	C499.085022,381.894104 502.755188,383.738647 500.976440,388.078796 
	C499.000702,388.280579 497.791595,387.304718 496.853546,386.158051 
	C490.963287,378.957672 483.977722,372.612061 479.602325,364.224701 
	C477.197327,359.614441 473.956665,355.530304 470.735382,351.553192 
	C453.910370,330.780609 439.879456,308.193695 426.307129,285.237885 
	C416.721802,269.025665 408.121490,252.318771 399.851318,235.444962 
	C393.266022,222.008911 387.259918,208.258652 381.990326,194.247711 
	C376.033295,178.409027 370.184235,162.486374 365.399811,146.270706 
	C362.402283,136.111206 359.920563,125.723579 356.993927,115.534775 
	C353.305328,102.693382 351.694153,89.478165 348.443207,76.598709 
	C346.638916,69.450653 346.269165,62.110966 344.880219,54.927505 
	C341.779755,38.892532 340.483246,22.617535 338.193634,6.476144 
	C337.959717,4.826982 337.562012,3.179134 338.757324,1.306865 
z"/>
<path fill="#D3C6BD" opacity="1.000000" stroke="none" 
	d="
M301.468658,2401.000000 
	C302.316437,2396.291748 306.481476,2394.533936 310.172333,2392.462402 
	C321.440216,2386.138428 332.727081,2379.864990 343.857056,2373.285645 
	C350.791687,2369.186035 358.698639,2366.795166 366.056671,2363.311035 
	C379.481567,2356.954346 393.143860,2350.841797 407.233917,2346.241455 
	C416.038971,2343.366455 423.596863,2337.981445 432.806519,2335.943848 
	C443.263306,2333.630615 453.380402,2329.389893 463.251526,2325.399414 
	C476.950226,2319.861816 490.689545,2314.197021 504.927948,2310.943115 
	C519.362183,2307.644775 533.228149,2302.847412 547.368774,2298.791504 
	C562.773865,2294.372559 578.236938,2290.234131 593.486816,2285.206543 
	C610.277649,2279.671143 627.521912,2275.488037 644.627563,2270.937744 
	C660.303772,2266.767822 676.283691,2263.601562 691.717957,2258.697021 
	C708.450317,2253.380127 725.748779,2250.269531 742.381470,2244.826660 
	C758.935547,2239.409424 775.871460,2235.475342 792.605652,2230.782471 
	C811.757751,2225.411377 830.783203,2219.606689 849.946350,2214.311768 
	C861.921265,2211.003174 873.909119,2207.739502 885.701416,2203.875000 
	C909.299133,2196.141357 932.812134,2188.142578 956.278564,2180.018066 
	C977.439270,2172.691895 997.832947,2163.423096 1018.586304,2155.080811 
	C1032.146484,2149.629883 1044.897705,2142.673828 1058.121216,2136.651367 
	C1065.639893,2133.226807 1072.820557,2128.791016 1080.629517,2125.003174 
	C1081.000000,2215.295898 1080.973877,2305.591797 1081.088745,2395.887695 
	C1081.093750,2399.814209 1080.654663,2401.136963 1076.116211,2401.134277 
	C818.056641,2400.983643 559.997009,2401.000000 301.468658,2401.000000 
z"/>
<path fill="#EFE1D8" opacity="1.000000" stroke="none" 
	d="
M500.903870,388.431335 
	C501.065002,383.652039 497.078308,381.743195 495.019806,378.695770 
	C492.810242,375.424591 489.771301,372.724548 487.215485,369.673767 
	C483.525238,365.268829 484.427521,362.840271 490.014069,361.988342 
	C491.549225,361.754211 492.947418,361.226532 494.093536,360.256042 
	C505.152863,350.891602 518.417419,344.720825 529.764648,335.880981 
	C538.544739,329.040985 548.395142,323.995850 557.386108,317.505646 
	C569.861755,308.499939 582.247437,299.347992 594.485596,290.052826 
	C609.336609,278.773193 625.751770,269.390015 638.299683,255.201324 
	C639.653381,253.670547 641.292725,252.572601 643.646606,252.032562 
	C645.193237,254.070679 643.473328,255.048828 642.359375,256.154480 
	C639.877747,258.617706 637.324829,261.008148 634.956787,263.585541 
	C632.321533,266.453796 632.198792,269.131897 635.463806,271.632904 
	C637.199341,272.962280 639.141113,274.420624 639.530029,276.558990 
	C640.995911,284.619446 646.112000,291.013672 649.213562,298.320831 
	C651.794983,304.402405 656.074158,309.651245 659.556458,315.296295 
	C662.091553,319.405884 664.969421,323.298035 666.362610,328.016388 
	C666.740356,329.295715 667.381042,330.498718 668.290955,331.490448 
	C680.652283,344.962646 691.362122,359.845642 703.905518,373.162659 
	C707.097778,376.551849 711.009949,379.092316 714.433655,382.250000 
	C724.505005,391.538788 733.933167,401.609497 746.493286,408.037811 
	C752.593750,411.159973 759.002930,414.292877 763.948181,419.413300 
	C764.526062,420.011719 765.185974,420.653748 765.966431,420.855530 
	C773.106201,422.701538 779.369812,426.710602 786.242493,429.121033 
	C798.766907,433.513733 811.366394,437.755219 824.035767,441.664856 
	C835.430725,445.181213 847.150879,448.119049 858.860901,450.157166 
	C876.527588,453.232086 894.232483,456.196838 911.938232,459.103546 
	C917.872009,460.077728 923.920776,460.169128 929.837280,460.294281 
	C942.930176,460.571167 955.623718,463.312164 968.423401,465.278412 
	C993.912720,469.194092 1019.126953,474.524139 1043.858521,481.959717 
	C1047.844360,483.158081 1051.889282,484.142212 1056.018311,484.767303 
	C1064.898438,486.111786 1072.527466,490.640930 1080.717285,494.727722 
	C1081.000000,564.687561 1081.000000,634.375122 1081.000000,704.531372 
	C1078.779907,706.883545 1076.540771,705.781860 1074.437256,704.875610 
	C1062.425659,699.700928 1050.361206,694.536499 1038.135742,690.020325 
	C1014.311096,681.219055 990.639709,671.972168 966.479248,664.049133 
	C948.511658,658.156982 930.919739,651.127075 913.119751,644.729248 
	C900.276489,640.113037 887.827698,634.548096 875.180847,629.504639 
	C864.584961,625.279053 853.747437,621.560242 843.356873,616.618164 
	C836.487793,613.351013 829.664368,609.447083 821.862671,607.780518 
	C816.823914,606.704102 812.118164,603.634094 807.353882,601.292114 
	C795.736023,595.580627 783.929321,590.286926 772.201355,584.818054 
	C767.389893,582.574402 762.741028,579.972229 757.916809,577.710388 
	C747.126526,572.651245 736.520569,567.202515 725.737427,562.124878 
	C721.660156,560.204895 717.946411,557.653015 714.123657,555.346436 
	C704.293579,549.415222 693.936279,544.456360 684.098511,538.586731 
	C680.111572,536.208008 676.358765,533.441223 671.716553,531.463013 
	C671.149475,531.243958 670.927979,531.149963 670.401367,530.873535 
	C668.918884,529.695984 668.057495,528.247498 665.990967,527.951782 
	C665.453491,527.745605 665.243713,527.645874 664.750366,527.339478 
	C662.347168,524.509277 659.676270,522.542969 656.778198,520.901733 
	C647.966248,515.911255 639.534363,510.341309 631.266296,504.502991 
	C623.704956,499.163696 616.527527,493.293121 608.401123,488.169647 
	C607.848450,487.976746 607.632996,487.885864 607.119507,487.612427 
	C603.228577,482.634155 598.329346,479.418427 593.038513,476.154175 
	C592.522095,475.898163 592.321228,475.782684 591.845459,475.452454 
	C588.084045,470.888336 583.660828,467.599609 578.888062,464.228516 
	C577.892334,463.891510 577.287354,463.557068 576.546509,462.815186 
	C574.211975,458.741272 571.183960,455.951172 566.793030,454.226746 
	C564.827271,453.671326 563.535217,452.735474 562.428772,451.019196 
	C561.414734,448.690247 560.363098,446.852692 557.682068,446.169128 
	C555.256897,445.467377 553.744751,444.107361 552.416565,442.013611 
	C551.593811,440.118286 550.882996,438.565948 548.583618,438.134277 
	C546.630371,437.555969 545.371155,436.590790 544.355835,434.799652 
	C543.396667,431.124084 541.304810,428.834839 537.932434,427.239655 
	C536.958374,426.917236 536.362244,426.603241 535.625854,425.900879 
	C534.585266,424.136108 533.786011,422.598785 531.643921,421.917297 
	C530.058777,421.114502 529.070190,420.156525 528.240906,418.567993 
	C527.771545,417.492676 527.829590,416.505646 527.254211,415.948486 
	C518.681152,407.647797 511.807159,397.701782 502.065765,390.059906 
	C501.388550,389.577881 501.096283,389.211578 500.903870,388.431335 
z"/>
<path fill="#9D928D" opacity="1.000000" stroke="none" 
	d="
M591.716309,474.827118 
	C591.931335,475.093994 592.324707,475.203461 592.528137,475.221375 
	C597.161438,479.205078 602.653931,481.877533 606.721069,486.818054 
	C606.941467,487.083191 607.346558,487.184113 607.554749,487.199402 
	C616.877075,493.547485 625.603455,500.422211 634.740906,506.713104 
	C641.967224,511.688171 649.216919,516.657715 656.959534,520.844238 
	C659.741089,522.348267 662.016968,524.579346 664.693542,526.830566 
	C664.920959,527.107117 665.327881,527.209778 665.537354,527.222168 
	C667.068909,527.922363 668.540222,528.369080 669.742554,529.828857 
	C669.947083,530.076599 670.354919,530.171326 670.563843,530.184753 
	C686.278564,539.519470 702.244934,548.043579 717.845703,557.179932 
	C726.872681,562.466431 736.228943,567.205078 745.531494,571.735107 
	C755.294373,576.489136 765.061890,581.428711 775.095703,585.731689 
	C783.147156,589.184509 790.866272,593.429932 798.921204,596.930786 
	C809.084290,601.348145 819.021240,606.199402 829.422180,610.182068 
	C839.252136,613.945923 848.771606,618.803589 858.594604,622.732910 
	C870.755737,627.597473 883.125000,632.014404 895.081177,637.322998 
	C912.402344,645.013916 930.495850,650.593140 948.095825,657.506409 
	C956.960510,660.988403 966.137634,664.010925 975.301086,666.861938 
	C987.510986,670.660889 999.163330,676.025391 1011.333496,679.907166 
	C1024.755127,684.188110 1037.652222,689.829346 1050.685059,695.054810 
	C1060.645996,699.048584 1071.030762,702.142212 1080.724365,707.734497 
	C1081.000000,710.370544 1081.000000,712.741150 1081.000000,715.555847 
	C1079.259399,717.498840 1077.531006,716.564026 1075.848267,715.915405 
	C1056.602661,708.496826 1037.706421,700.113342 1018.236084,693.370178 
	C1003.954407,688.423950 989.980591,682.636047 975.472717,678.239197 
	C963.580688,674.635193 951.833862,670.276550 940.396790,665.308105 
	C934.270691,662.646790 927.841064,660.961975 921.617004,658.623779 
	C890.797363,647.045471 860.661499,633.785339 830.098389,621.581238 
	C814.593262,615.389893 799.490845,607.987244 784.296692,600.928894 
	C768.310120,593.502258 752.362427,585.986633 736.603333,578.116821 
	C721.903870,570.776367 707.486450,562.852173 693.105469,554.865295 
	C681.331909,548.326477 669.680176,541.565308 658.320801,534.414307 
	C643.172424,524.877991 628.390198,514.705505 614.065308,503.922852 
	C611.420410,501.932068 608.617371,500.118988 606.118652,497.358765 
	C605.803040,497.148956 605.399536,497.097137 605.204346,497.040009 
	C589.591736,485.454926 575.156738,472.725159 560.413635,460.378143 
	C543.424744,446.150391 527.831604,430.410278 512.572083,414.390625 
	C496.417145,397.431030 481.455170,379.372498 466.437134,361.413208 
	C455.228180,348.008942 445.616913,333.322601 436.048431,318.690857 
	C426.677765,304.361603 417.762573,289.685974 409.832947,274.548737 
	C404.694336,264.739380 399.805115,254.690811 394.570587,244.950348 
	C386.898621,230.674194 381.499084,215.478088 374.723969,200.862076 
	C371.481110,193.866180 368.991516,186.388016 366.618896,178.942337 
	C364.098755,171.033737 361.346588,163.171860 358.506256,155.378830 
	C351.886353,137.215744 347.411713,118.492935 342.762665,99.798019 
	C340.918579,92.382690 339.552094,84.850494 337.837372,77.427834 
	C333.442657,58.403847 331.316589,39.036911 328.258850,19.818325 
	C327.313904,13.878804 325.400177,7.749434 327.759277,1.295201 
	C331.361298,1.000000 334.722565,1.000000 338.541931,0.999999 
	C340.138123,10.690891 341.144989,20.399454 342.446930,30.068283 
	C344.145508,42.682255 345.263062,55.453819 348.130219,67.809593 
	C351.230774,81.171364 351.777954,95.070091 356.727966,108.026573 
	C357.547394,110.171364 357.778656,112.537910 358.316589,114.793655 
	C362.917358,134.086594 368.649841,153.037628 375.249969,171.741913 
	C380.954529,187.908157 386.716888,204.082977 393.888153,219.630722 
	C402.006134,237.231018 410.542053,254.643600 420.000488,271.620972 
	C429.428589,288.543762 439.272919,305.188354 450.126007,321.195526 
	C456.903503,331.191589 463.454254,341.372650 471.512054,350.531219 
	C475.251068,354.781036 478.558838,359.666595 481.422150,364.786102 
	C486.309967,373.525421 493.523865,380.533142 500.625366,387.940979 
	C501.042786,388.381744 501.221985,388.640076 501.675049,388.971558 
	C509.076141,395.684631 515.583374,402.916138 521.598450,410.584686 
	C523.644104,413.192688 527.355591,414.064697 528.748535,417.776428 
	C529.739563,418.979279 530.546448,419.884247 531.620789,420.937286 
	C533.229492,422.128296 534.353577,423.395844 535.722290,424.860809 
	C536.337891,425.449951 536.763672,425.785065 537.463135,426.175964 
	C540.448792,428.247192 542.939453,430.470947 544.760132,433.780396 
	C545.693481,435.398071 546.706787,436.451843 548.452026,437.130432 
	C550.306702,438.018188 551.309753,439.430939 552.720825,440.859009 
	C554.029236,442.736908 555.288757,444.207825 557.442688,445.136047 
	C559.667542,446.321899 560.954712,448.108643 562.719116,449.850281 
	C563.695312,451.413757 564.702698,452.470428 566.442383,453.141602 
	C570.234192,455.730316 573.670227,458.299072 576.704224,461.846619 
	C577.337646,462.450653 577.764954,462.784668 578.466431,463.173340 
	C582.909607,467.100677 587.589111,470.398376 591.716309,474.827118 
z"/>
<path fill="#E7D6CD" opacity="1.000000" stroke="none" 
	d="
M78.245468,2400.690430 
	C53.870892,2401.000000 29.740028,2400.851562 5.614307,2401.137451 
	C1.277219,2401.188721 0.898104,2399.906494 0.905539,2396.127197 
	C1.036175,2329.730713 1.000000,2263.334229 1.000000,2196.468750 
	C3.974774,2194.713135 4.846533,2197.046143 5.688332,2198.938232 
	C13.050471,2215.488525 21.216362,2231.689941 28.309542,2248.332764 
	C34.872345,2263.730957 41.306808,2279.216797 47.169449,2294.937012 
	C52.335918,2308.790527 57.289280,2322.716553 62.188084,2336.657715 
	C68.693436,2355.170410 74.607292,2373.885254 78.868973,2393.071533 
	C79.408821,2395.501953 79.802040,2398.007080 78.245468,2400.690430 
z"/>
<path fill="#F4EDE5" opacity="1.000000" stroke="none" 
	d="
M1081.000000,494.555847 
	C1072.729858,493.489075 1066.025513,487.699463 1057.693848,486.405273 
	C1043.222778,484.157440 1029.728394,477.821045 1015.296021,475.792908 
	C997.593933,473.305176 980.512817,468.084869 962.771179,465.486511 
	C942.746094,462.553650 922.407898,462.997833 902.644226,458.837677 
	C892.770447,456.759369 882.684570,456.170593 872.871704,453.428284 
	C867.315063,451.875427 860.809814,453.094910 855.268921,450.925537 
	C843.490906,446.314240 830.782776,445.698517 818.854980,441.404999 
	C808.037292,437.511108 796.630676,434.634186 786.077026,430.320862 
	C777.048767,426.630981 766.662781,424.980682 759.261353,417.144745 
	C756.264954,413.972443 751.520447,412.087738 747.497498,410.086304 
	C741.474792,407.090088 736.051270,403.291534 730.892822,399.286530 
	C724.305542,394.172119 718.508423,388.015289 712.541504,382.134491 
	C708.087769,377.745117 702.792725,374.410950 698.725586,369.442535 
	C690.226318,359.060150 681.628540,348.732574 672.933289,338.534851 
	C664.764343,328.954224 660.984863,316.893036 653.258423,307.476654 
	C648.237976,301.358154 647.398132,293.369049 641.991333,287.750427 
	C640.685059,286.392975 640.215088,284.299896 639.913940,282.233704 
	C639.331604,278.238434 638.023804,274.723358 634.120544,272.323151 
	C630.062012,269.827423 629.973206,266.889130 633.368347,263.218445 
	C636.739624,259.573608 640.382507,256.179962 643.953125,252.340973 
	C644.000000,252.005798 644.000000,251.999878 644.002441,252.000000 
	C644.772095,251.333893 645.833496,251.151367 646.786255,250.225388 
	C649.350403,249.855515 650.307922,248.000305 651.715637,246.176056 
	C653.137451,244.518555 654.845642,244.023300 656.737549,243.199341 
	C656.986694,242.984955 657.000000,242.999390 656.992432,242.990967 
	C658.205261,241.838547 659.372375,240.640533 660.779907,239.239716 
	C661.003296,239.019638 661.489136,238.991470 661.732422,238.985794 
	C663.203125,237.841721 664.370544,236.642151 665.780273,235.241531 
	C666.004333,235.021851 666.489258,234.992233 666.732056,234.986053 
	C667.862915,234.157150 668.714905,233.297501 669.788086,232.231293 
	C670.003479,232.018738 670.487488,231.989334 670.729858,231.983795 
	C672.395996,230.676315 674.295105,229.993378 675.774048,228.239380 
	C676.002258,228.012573 676.481934,227.983490 676.722168,227.978333 
	C682.051270,222.958176 688.408508,219.501892 693.758301,214.261963 
	C694.548584,213.832581 695.093384,213.647095 695.811096,213.224945 
	C696.540710,212.479431 697.066956,211.939636 697.796997,211.203857 
	C698.460510,210.680252 698.920959,210.353378 699.677002,210.002594 
	C700.520386,209.462646 701.068115,208.946518 701.802612,208.217514 
	C702.003479,208.019226 702.487488,207.989395 702.729858,207.983902 
	C703.863953,207.157303 704.716980,206.296524 705.789246,205.226654 
	C706.005676,205.014648 706.000000,205.000000 706.006470,205.003021 
	C707.224365,204.200165 708.611328,203.638535 709.780151,202.241150 
	C710.490967,201.747772 710.977112,201.474106 711.720581,201.091583 
	C712.861938,200.155228 713.716370,199.297455 714.788208,198.229126 
	C719.231384,197.312302 721.581665,193.993881 724.674316,191.135223 
	C726.563904,189.151901 728.929504,188.282043 730.771118,186.249390 
	C731.004517,186.021301 731.491089,185.993881 731.734680,185.988205 
	C737.534851,180.807861 744.150391,176.915726 749.757446,171.261322 
	C750.489990,170.744553 750.977539,170.471970 751.723206,170.091644 
	C752.861816,169.153549 753.717285,168.297684 754.787354,167.228577 
	C755.810913,166.422531 756.619995,165.829865 757.702881,165.109222 
	C759.540649,163.519333 761.031616,161.983521 762.775024,160.246475 
	C763.004333,160.021744 763.491455,159.993744 763.735352,159.988342 
	C770.865417,154.205414 778.009033,148.730469 784.757324,142.257431 
	C786.743347,141.109634 788.553040,140.300919 789.832886,138.277588 
	C792.320068,136.334610 794.653564,134.678589 796.767456,132.249496 
	C797.488464,131.744019 797.974243,131.470963 798.717041,131.088974 
	C801.686584,128.324081 804.325317,125.583908 807.764526,123.248413 
	C809.794983,121.432213 811.585999,119.851196 813.671326,118.123001 
	C814.863159,117.162384 815.711304,116.297974 816.789917,115.236504 
	C817.007141,115.025673 817.490601,114.995811 817.732727,114.988647 
	C818.864380,114.153816 819.722412,113.294144 820.781006,112.205681 
	C821.798401,111.074814 822.608093,110.165527 823.697266,109.119118 
	C825.953430,106.900314 828.717163,105.756691 830.767334,103.250275 
	C831.489624,102.745041 831.976746,102.471779 832.721802,102.090210 
	C834.539917,100.516624 836.033508,98.983955 837.773987,97.244400 
	C838.002441,97.018890 838.486938,96.989403 838.729614,96.983429 
	C843.250977,92.561028 847.777832,88.413933 852.759644,84.256409 
	C853.316284,83.894379 853.575195,83.699875 853.897583,83.217117 
	C855.194031,81.819382 856.380127,80.644623 857.780762,79.241821 
	C858.492676,78.749321 858.980835,78.475731 859.727661,78.094505 
	C862.207092,75.855675 864.363708,73.659996 866.767944,71.245636 
	C867.487976,70.741173 867.974365,70.469421 868.717957,70.089272 
	C876.390198,62.038551 884.854309,55.194721 892.755737,47.259712 
	C893.000305,47.013916 893.484009,46.984974 893.726196,46.980125 
	C896.219910,44.874535 898.353027,42.654018 900.769043,40.250473 
	C901.490295,39.746033 901.976440,39.472889 902.719849,39.091194 
	C910.611816,31.270470 919.171387,24.526747 926.758057,16.262077 
	C927.548340,15.831938 928.093140,15.646755 928.810669,15.224991 
	C930.537109,13.508189 932.051086,11.988209 933.759460,10.207773 
	C935.047485,7.995205 936.766235,6.690945 938.791138,5.248480 
	C939.935669,3.880313 940.213379,2.278049 941.778320,1.225267 
	C943.066711,1.000000 944.133362,1.000000 945.600037,1.000000 
	C946.055542,2.853099 945.992676,4.593020 944.466492,6.047790 
	C935.352783,14.735286 926.429199,23.627256 917.170166,32.155762 
	C908.882690,39.789364 899.675598,46.451183 892.859802,55.605919 
	C889.677246,59.880623 884.431702,61.316364 880.456299,64.656067 
	C873.349487,70.626465 867.116333,77.476082 860.060669,83.461113 
	C848.949768,92.886139 838.863342,103.379936 827.033752,112.141434 
	C818.671875,118.334549 811.299194,126.186066 802.864929,132.519653 
	C789.214905,142.769974 777.391418,155.117432 763.821106,165.532532 
	C754.844482,172.422058 746.211670,179.974274 737.308899,187.077423 
	C731.755798,191.507950 725.659546,195.251083 719.993469,199.548553 
	C714.588745,203.647812 709.682495,208.440674 704.101257,212.263107 
	C693.581116,219.467987 684.389771,228.444290 673.324890,234.922180 
	C670.219238,236.740387 667.494873,239.301895 664.843750,241.787170 
	C657.090759,249.055176 647.538940,253.935211 639.661011,261.066345 
	C635.382935,264.938873 635.098511,266.794250 640.032043,269.466309 
	C642.621765,270.868927 644.238586,272.498169 644.050293,275.663605 
	C643.905151,278.104706 645.520813,280.043884 646.572571,282.093536 
	C650.283142,289.324524 653.672119,296.766907 657.963501,303.641968 
	C663.450073,312.431915 668.540344,321.556305 675.699280,329.208496 
	C676.154480,329.695068 676.782288,330.091431 677.060486,330.661255 
	C679.701355,336.071777 683.738525,340.328766 687.620728,344.864990 
	C691.659302,349.583923 694.126404,356.022186 699.105042,359.716827 
	C705.103149,364.168091 707.595581,371.462402 714.188843,375.515106 
	C718.314819,378.051270 722.052185,382.067688 725.521851,385.657043 
	C731.020203,391.345093 739.156311,393.436371 743.684387,400.103363 
	C743.860718,400.363037 744.181702,400.563812 744.478088,400.696930 
	C760.686523,407.979370 774.532715,420.046173 791.949890,424.753754 
	C803.022766,427.746552 813.009338,433.445312 824.215637,436.231750 
	C832.603821,438.317413 840.886414,440.300781 849.484863,441.036163 
	C854.356567,441.452820 858.498413,444.316315 863.247681,445.253967 
	C876.041260,447.779907 888.876282,449.859344 901.878845,451.132660 
	C910.890198,452.015137 919.919495,452.787567 928.871155,454.788330 
	C938.829956,457.014130 949.113220,457.949921 959.304932,458.931549 
	C972.667725,460.218536 985.846558,462.557495 998.968262,465.213806 
	C1014.044922,468.265839 1029.046021,471.693054 1044.073975,474.984009 
	C1050.715820,476.438507 1056.520874,480.405090 1063.378296,481.310883 
	C1069.338013,482.098114 1074.942261,484.151611 1080.636963,486.964172 
	C1081.000000,489.370575 1081.000000,491.741119 1081.000000,494.555847 
z"/>
<path fill="#A89A93" opacity="1.000000" stroke="none" 
	d="
M78.464645,2401.000000 
	C79.248932,2392.746826 75.405235,2385.356201 73.649658,2377.693115 
	C70.253822,2362.870605 64.926117,2348.571533 59.823639,2334.236084 
	C56.385052,2324.575684 53.207226,2314.821289 49.969120,2305.090332 
	C48.354187,2300.237061 45.961784,2295.724121 44.324738,2290.837646 
	C41.075977,2281.140137 37.170086,2271.625977 32.964687,2262.293213 
	C24.225233,2242.898682 16.087553,2223.219727 6.232234,2204.343506 
	C4.768886,2201.540771 5.704060,2197.422363 1.372241,2195.983887 
	C1.000000,2186.645752 1.000000,2177.291748 1.000000,2167.468750 
	C4.185755,2169.132568 5.693002,2172.527588 7.049047,2175.821777 
	C8.741267,2179.932617 10.463037,2183.955078 12.561803,2187.915039 
	C16.852222,2196.010254 20.773657,2204.313721 24.860329,2212.524658 
	C29.065220,2220.972900 32.293774,2229.902100 36.109158,2238.550781 
	C39.843822,2247.016357 43.885792,2255.347168 47.584869,2263.827637 
	C49.563274,2268.363281 51.354687,2273.026611 53.122536,2277.603027 
	C56.035233,2285.143311 59.359486,2292.557129 62.132030,2300.173340 
	C64.480728,2306.625732 66.672562,2313.243408 69.137047,2319.681885 
	C72.414116,2328.243652 76.169456,2336.655029 78.235413,2345.822021 
	C80.733627,2356.906738 84.345703,2367.827148 87.775803,2378.716797 
	C89.992867,2385.755371 91.631248,2392.764404 91.924820,2400.558350 
	C87.643097,2401.000000 83.286201,2401.000000 78.464645,2401.000000 
z"/>
<path fill="#B6ABA5" opacity="1.000000" stroke="none" 
	d="
M327.625000,1.000000 
	C327.938385,13.491661 331.080780,25.611004 332.298737,37.928291 
	C333.982178,54.953487 338.445496,71.420380 341.192963,88.221603 
	C342.999573,99.269493 346.603699,110.028152 349.488403,120.893608 
	C351.980927,130.281998 353.696777,140.013885 357.415436,148.899429 
	C360.887451,157.195801 362.279449,166.134476 366.457855,174.169128 
	C369.093140,179.236557 370.462799,184.974396 372.297302,190.362762 
	C377.740662,206.351105 384.890259,221.608353 391.858978,236.862808 
	C396.395020,246.792221 401.296295,256.772797 407.262085,266.117737 
	C409.871918,270.205841 411.329956,275.047180 414.009827,279.272430 
	C418.583099,286.482910 422.586304,294.052124 426.981506,301.379120 
	C431.903229,309.583832 436.660858,317.881409 442.272736,325.672607 
	C453.400635,341.121826 463.663818,357.177032 476.618591,371.295868 
	C484.337067,379.707977 491.227783,388.876678 498.814789,397.443878 
	C507.630035,407.398010 516.708618,417.085327 526.022522,426.570587 
	C548.740601,449.706604 573.413635,470.597443 598.855103,490.636383 
	C600.989624,492.317596 603.699341,493.582794 604.983032,496.636230 
	C598.015808,494.187195 592.623962,488.961517 586.879883,484.434570 
	C577.704895,477.203644 569.349487,468.968384 560.128418,461.736206 
	C554.154785,457.051056 548.565430,451.833954 543.109863,446.539886 
	C533.449829,437.165710 523.800659,427.761230 514.558960,417.980164 
	C504.805176,407.657043 494.914825,397.439880 486.276520,386.092163 
	C482.793213,381.516327 478.518738,377.542786 474.310974,373.134521 
	C461.869141,360.403229 452.377808,345.777893 442.291382,331.633728 
	C433.443512,319.226349 425.423096,306.264771 417.985779,292.947205 
	C413.757294,285.375549 410.017517,277.353607 405.184326,270.341858 
	C397.751587,259.558746 394.241669,247.122147 387.986969,235.917267 
	C380.325043,222.191406 375.775757,206.988129 368.496643,193.066071 
	C365.748962,187.810822 365.354004,181.960327 363.574249,176.469193 
	C360.113831,165.792465 354.501617,155.896027 352.718781,144.549423 
	C351.924713,139.495682 349.720612,134.477692 348.140015,129.458923 
	C344.007568,116.337517 341.141479,102.911453 337.900269,89.592621 
	C333.057190,69.691238 330.098450,49.400806 327.000000,29.158400 
	C325.619141,20.137280 324.931427,11.061441 325.012085,1.465593 
	C325.750000,1.000000 326.500000,1.000000 327.625000,1.000000 
z"/>
<path fill="#B6ABA5" opacity="1.000000" stroke="none" 
	d="
M605.870361,497.495911 
	C609.969666,497.862640 612.538940,501.244080 615.596558,503.542908 
	C627.129944,512.214294 639.252014,519.993835 651.125549,528.153015 
	C662.881165,536.231140 675.107117,543.600464 687.529907,550.451904 
	C707.804077,561.633667 727.918030,573.179688 749.114197,582.670105 
	C762.694397,588.750427 775.721313,596.081482 789.368164,601.993286 
	C800.126221,606.653687 810.917175,611.328247 821.515808,616.264587 
	C837.483826,623.701843 854.120117,629.390869 870.213196,636.464172 
	C886.140076,643.464417 902.424255,649.665161 918.639709,655.991089 
	C930.361755,660.564026 942.200073,664.844299 954.036133,669.117859 
	C969.755310,674.793640 985.575928,680.191345 1001.255798,685.972107 
	C1020.997742,693.250427 1040.726807,700.580200 1060.280273,708.343994 
	C1066.904419,710.974304 1073.459839,713.758362 1080.615479,716.000366 
	C1081.000000,716.750000 1081.000000,717.500000 1081.000000,718.625000 
	C1078.829712,719.394226 1076.930176,718.257812 1074.502197,717.880737 
	C1072.943481,716.962769 1071.621582,716.313965 1070.213623,715.231934 
	C1068.959473,714.966187 1067.933472,714.915894 1066.523804,714.828979 
	C1063.739990,713.082092 1060.897827,712.158630 1058.216675,710.269043 
	C1057.522827,710.031677 1057.087769,710.013184 1056.326294,709.980164 
	C1052.821655,709.664246 1050.141235,708.145142 1047.247559,706.258606 
	C1044.333252,706.245483 1042.396240,704.087830 1039.499023,703.861938 
	C1038.457642,703.462097 1037.948242,702.904053 1037.178101,702.222412 
	C1036.258301,701.984497 1035.544434,701.937805 1034.474121,701.864014 
	C1031.322021,699.480469 1027.562134,699.267517 1024.220703,697.288696 
	C1023.511780,697.042542 1023.079773,697.016663 1022.323853,696.970947 
	C1018.094238,696.437378 1015.206299,693.532959 1011.243713,692.268921 
	C1009.617737,691.992432 1008.273254,691.938782 1006.526245,691.856812 
	C1005.458740,691.462036 1004.947937,690.905518 1004.174927,690.226746 
	C1000.940369,688.984131 997.913757,687.930664 994.515259,686.833008 
	C993.455322,686.461914 992.948853,685.900208 992.164429,685.239990 
	C989.560364,684.942261 987.125000,685.120728 984.501587,683.916016 
	C982.378723,682.469727 980.248474,681.761719 978.200562,680.275269 
	C976.608948,680.002075 975.273254,679.936890 973.538086,679.835510 
	C972.455078,679.462097 971.948975,678.900085 971.177856,678.222168 
	C965.049500,677.121277 960.027039,673.241333 953.541260,672.833618 
	C952.452454,672.464355 951.953247,671.896851 951.220276,671.178833 
	C948.373474,670.566162 946.078857,669.230347 943.355835,668.029419 
	C938.795776,667.463257 935.384583,664.905151 931.230835,663.294434 
	C929.603943,663.010254 928.264099,662.951233 926.523193,662.861694 
	C925.458801,662.461975 924.947815,661.905701 924.176758,661.224365 
	C922.588257,660.680847 921.206665,660.327637 919.471680,659.906250 
	C918.460022,659.461853 917.947632,658.907471 917.174194,658.228760 
	C914.268982,657.333618 911.572388,656.626831 908.495544,655.881836 
	C907.458069,655.462830 906.950317,654.904968 906.211426,654.188599 
	C901.630310,652.303101 897.238220,650.625977 892.469482,648.911865 
	C891.336548,648.157166 890.257202,648.028748 889.234375,647.196838 
	C887.316956,646.604248 885.605835,646.235779 883.515747,645.835571 
	C882.456482,645.462097 881.948364,644.902039 881.168945,644.233276 
	C880.538940,644.018311 880.119568,643.988892 879.385681,643.936279 
	C877.969849,642.931274 876.613647,642.325562 875.207520,641.239624 
	C871.358215,641.737610 868.825012,639.123657 865.435913,637.968750 
	C864.467102,637.460571 863.944702,636.917419 863.179199,636.223877 
	C860.238586,635.491577 857.890442,633.503113 854.516235,633.856567 
	C852.762085,632.665100 850.888672,632.508911 849.242554,631.221802 
	C847.195862,629.625610 845.241089,628.669495 842.502075,628.859741 
	C840.759460,627.666809 838.891235,627.500916 837.224121,626.241760 
	C836.563721,625.988708 836.144836,625.957947 835.411926,625.900391 
	C834.464172,625.461365 833.945984,624.913086 833.173401,624.229309 
	C831.265381,623.663208 829.566895,623.285278 827.494324,622.870117 
	C825.945312,621.962646 824.616638,621.326111 823.247437,620.197388 
	C820.548462,618.324524 817.693481,617.665710 814.499146,616.868774 
	C813.458435,616.461792 812.947876,615.905212 812.180908,615.219116 
	C811.560181,614.991089 811.144226,614.955872 810.416382,614.891968 
	C809.460693,614.462708 808.948914,613.908203 808.208252,613.190796 
	C806.629456,612.615234 805.241455,612.247070 803.489502,611.849854 
	C801.222473,610.098022 798.250671,610.490356 796.260864,608.224670 
	C796.024658,607.977661 795.553894,607.930603 795.317993,607.912903 
	C793.777832,606.634949 791.885620,606.500183 790.202759,605.270386 
	C786.508667,605.918823 784.837097,602.225281 781.483521,601.878052 
	C780.459839,601.461792 779.947632,600.907104 779.180237,600.220581 
	C773.760742,599.182678 769.759583,595.505493 764.482910,593.898682 
	C763.456177,593.462891 762.950012,592.902161 762.203491,592.194580 
	C761.246643,591.652954 760.482300,591.316528 759.408264,590.926208 
	C758.464111,590.461304 757.945984,589.913025 757.173096,589.229980 
	C755.265259,588.663391 753.567078,588.284790 751.494629,587.870972 
	C750.456909,587.463440 749.951172,586.903320 749.217651,586.182007 
	C749.032166,585.970520 748.567139,585.911499 748.333618,585.891052 
	C747.462769,585.461975 746.947144,584.910950 746.189575,584.210449 
	C743.277039,582.981812 740.565369,581.950806 737.484741,580.881958 
	C736.458130,580.463257 735.950562,579.904724 735.214233,579.184998 
	C733.952637,578.631348 732.878418,578.287781 731.469177,577.875305 
	C729.374878,576.479187 727.238647,575.785828 725.259399,574.208557 
	C723.023438,572.841431 721.201538,571.336670 718.491821,570.851685 
	C717.454102,570.462646 716.951782,569.899902 716.200317,569.200012 
	C710.238159,567.059265 705.389587,563.298706 699.493042,560.857605 
	C698.456299,560.461548 697.948608,559.902466 697.186157,559.213257 
	C695.787842,559.017212 695.150513,558.185303 694.256470,557.175903 
	C690.742737,554.702881 686.345093,554.582581 683.251953,551.248169 
	C678.915588,548.728699 674.831238,546.454956 670.429688,544.012573 
	C668.946045,542.959595 667.617981,542.320923 666.233887,541.211060 
	C665.475159,540.793152 664.933960,540.600952 664.225586,540.168335 
	C663.452026,539.476440 662.947510,538.914429 662.206543,538.193726 
	C660.588928,537.333313 659.164124,536.679138 657.406372,535.967896 
	C656.465759,535.461975 655.947205,534.915100 655.217041,534.183838 
	C652.898743,531.828308 650.107239,530.784119 647.278076,529.183228 
	C646.451416,528.476257 645.947510,527.913147 645.201721,527.197510 
	C643.592407,526.327026 642.177979,525.660645 640.432495,524.931885 
	C639.461121,524.463135 638.949402,523.908691 638.214600,523.184753 
	C636.528625,521.318604 635.093201,519.578918 632.429321,518.954590 
	C631.462097,518.463135 630.950073,517.910278 630.219482,517.180786 
	C623.495361,512.292480 616.990173,507.572479 610.416626,502.949738 
	C608.479004,501.587128 606.763000,500.132599 605.870361,497.495911 
z"/>
<path fill="#D3C6BD" opacity="1.000000" stroke="none" 
	d="
M1081.000000,707.625000 
	C1071.875610,704.466248 1062.759399,700.910706 1053.625000,697.403259 
	C1035.672852,690.510254 1017.910828,683.134583 999.664673,676.991455 
	C986.132874,672.435608 972.907959,666.967957 959.375854,662.413086 
	C951.829285,659.872803 944.413818,657.031738 936.938049,654.324951 
	C924.006165,649.642822 911.001221,645.194885 898.310120,639.842712 
	C884.542236,634.036316 870.532715,628.805725 856.712463,623.119934 
	C847.205750,619.208862 838.047607,614.357666 828.361938,610.998535 
	C816.530396,606.895325 805.495361,601.123596 794.147400,596.038757 
	C779.648071,589.541687 765.766113,581.635620 751.150269,575.440735 
	C741.364014,571.292908 732.162537,566.074341 722.871887,561.160706 
	C711.899231,555.357483 700.970581,549.331177 690.234314,543.019348 
	C683.674011,539.162598 677.218872,535.178162 670.867554,530.528320 
	C673.971680,530.157471 676.552368,531.989624 678.931580,533.590027 
	C693.230896,543.208618 709.233215,549.877991 723.490662,559.578674 
	C727.140503,562.062012 731.501526,563.530518 735.510132,565.514221 
	C749.509216,572.441711 763.794495,578.787842 777.893799,585.516541 
	C791.904236,592.202820 805.821472,599.084351 819.779724,605.879883 
	C820.228821,606.098511 820.658203,606.403748 821.132996,606.517029 
	C834.882446,609.796448 846.730530,617.743958 859.911072,622.357971 
	C879.924622,629.364075 898.951355,638.914124 919.012329,645.630432 
	C932.657043,650.198608 945.861084,655.892212 959.683594,660.069580 
	C977.718750,665.519897 995.067566,673.200378 1012.925110,679.296204 
	C1022.605286,682.600647 1031.945557,686.719116 1041.592041,690.070984 
	C1051.229004,693.419495 1060.140503,698.611206 1070.087769,701.257019 
	C1073.533569,702.173584 1076.267212,705.236938 1080.600830,705.009399 
	C1081.000000,705.750000 1081.000000,706.500000 1081.000000,707.625000 
z"/>
<path fill="#EFE1D8" opacity="1.000000" stroke="none" 
	d="
M941.625000,1.000000 
	C942.007263,2.766874 940.848877,3.776739 939.283691,4.854716 
	C938.987793,3.926953 938.993469,2.862720 938.999573,1.399244 
	C939.750000,1.000000 940.500000,1.000000 941.625000,1.000000 
z"/>
<path fill="#D3C6BD" opacity="1.000000" stroke="none" 
	d="
M1011.029602,692.388916 
	C1015.107605,692.034241 1018.114136,694.802185 1021.799194,696.677490 
	C1017.318115,698.251343 1014.623962,694.415466 1011.029602,692.388916 
z"/>
<path fill="#D3C6BD" opacity="1.000000" stroke="none" 
	d="
M931.019165,663.411194 
	C935.201965,663.499756 938.633789,666.129272 942.781372,667.707764 
	C938.147339,669.061523 934.865906,665.717285 931.019165,663.411194 
z"/>
<path fill="#D3C6BD" opacity="1.000000" stroke="none" 
	d="
M683.034302,551.360107 
	C686.540649,552.843384 690.544678,553.759277 693.851562,556.680664 
	C690.009705,555.955444 685.684692,555.605713 683.034302,551.360107 
z"/>
<path fill="#D3C6BD" opacity="1.000000" stroke="none" 
	d="
M1024.019775,697.414917 
	C1027.415527,698.090210 1031.231079,698.273926 1034.026611,701.501465 
	C1030.612549,700.882568 1027.051270,700.066650 1024.019775,697.414917 
z"/>
<path fill="#D3C6BD" opacity="1.000000" stroke="none" 
	d="
M1047.034424,706.368042 
	C1049.842407,707.157349 1052.704102,708.292725 1055.782959,709.696899 
	C1052.259644,710.991394 1049.570190,709.136963 1047.034424,706.368042 
z"/>
<path fill="#D3C6BD" opacity="1.000000" stroke="none" 
	d="
M1058.020264,710.389343 
	C1060.991089,710.698975 1063.757324,711.867798 1066.045898,714.471985 
	C1062.991455,714.355408 1060.243530,713.123718 1058.020264,710.389343 
z"/>
<path fill="#D3C6BD" opacity="1.000000" stroke="none" 
	d="
M796.054993,608.344849 
	C798.528748,608.606873 800.926697,609.465698 803.030151,611.494995 
	C800.692871,610.979187 797.425110,612.028503 796.054993,608.344849 
z"/>
<path fill="#D3C6BD" opacity="1.000000" stroke="none" 
	d="
M978.012329,680.402161 
	C980.318665,680.393188 982.455322,681.176025 984.035400,683.513428 
	C981.689453,683.612671 979.579102,682.769531 978.012329,680.402161 
z"/>
<path fill="#D3C6BD" opacity="1.000000" stroke="none" 
	d="
M725.067261,574.316467 
	C727.305908,574.480713 729.465454,575.202026 731.043701,577.486755 
	C728.688110,577.594116 726.526245,576.836365 725.067261,574.316467 
z"/>
<path fill="#D3C6BD" opacity="1.000000" stroke="none" 
	d="
M849.058472,631.337952 
	C850.785583,631.421326 852.716431,631.501343 854.030029,633.502563 
	C852.233276,633.620728 850.296936,633.526428 849.058472,631.337952 
z"/>
<path fill="#D3C6BD" opacity="1.000000" stroke="none" 
	d="
M837.039856,626.364685 
	C838.777832,626.410461 840.704956,626.498474 842.030334,628.503418 
	C840.233582,628.627441 838.307922,628.515747 837.039856,626.364685 
z"/>
<path fill="#D3C6BD" opacity="1.000000" stroke="none" 
	d="
M790.020020,605.400391 
	C791.775208,605.401733 793.719971,605.468445 795.006958,607.559692 
	C793.241028,607.587097 791.310669,607.485474 790.020020,605.400391 
z"/>
<path fill="#D3C6BD" opacity="1.000000" stroke="none" 
	d="
M1070.036621,715.355225 
	C1071.634644,715.152466 1073.104492,715.614441 1074.036133,717.520813 
	C1072.368774,717.883118 1070.921753,717.362915 1070.036621,715.355225 
z"/>
<path fill="#D3C6BD" opacity="1.000000" stroke="none" 
	d="
M875.027893,641.364990 
	C876.641357,641.157043 878.124329,641.612183 879.007019,643.582642 
	C877.363892,643.856628 875.891602,643.375916 875.027893,641.364990 
z"/>
<path fill="#D3C6BD" opacity="1.000000" stroke="none" 
	d="
M823.067017,620.312744 
	C824.649170,620.168762 826.108398,620.644165 827.038269,622.514404 
	C825.365173,622.874695 823.896057,622.388123 823.067017,620.312744 
z"/>
<path fill="#D3C6BD" opacity="1.000000" stroke="none" 
	d="
M666.055664,541.327637 
	C667.638977,541.173828 669.108154,541.634399 670.032593,543.523804 
	C668.370422,543.863831 666.901245,543.379517 666.055664,541.327637 
z"/>
<path fill="#D3C6BD" opacity="1.000000" stroke="none" 
	d="
M889.071228,647.324585 
	C890.161621,647.002808 891.388916,646.813049 892.015320,648.544312 
	C890.904297,648.961914 889.648499,649.216187 889.071228,647.324585 
z"/>
<path fill="#D3C6BD" opacity="1.000000" stroke="none" 
	d="
M924.018921,661.358398 
	C924.873779,661.031860 925.644653,661.253174 926.045532,662.527832 
	C925.159973,662.944580 924.377136,662.737366 924.018921,661.358398 
z"/>
<path fill="#D3C6BD" opacity="1.000000" stroke="none" 
	d="
M951.065674,671.298340 
	C951.913391,671.020264 952.660645,671.278137 953.063110,672.500000 
	C952.158081,672.936279 951.372803,672.727844 951.065674,671.298340 
z"/>
<path fill="#D3C6BD" opacity="1.000000" stroke="none" 
	d="
M971.022583,678.355713 
	C971.868103,678.029785 972.636902,678.245667 973.055542,679.500610 
	C972.171631,679.940613 971.391663,679.736389 971.022583,678.355713 
z"/>
<path fill="#D3C6BD" opacity="1.000000" stroke="none" 
	d="
M992.009766,685.379333 
	C992.853333,685.029236 993.623352,685.235657 994.057983,686.490479 
	C993.181641,686.941406 992.402649,686.745178 992.009766,685.379333 
z"/>
<path fill="#D3C6BD" opacity="1.000000" stroke="none" 
	d="
M1004.018677,690.361023 
	C1004.872009,690.031067 1005.644043,690.249451 1006.047058,691.525146 
	C1005.160278,691.947876 1004.383545,691.732056 1004.018677,690.361023 
z"/>
<path fill="#D3C6BD" opacity="1.000000" stroke="none" 
	d="
M863.020020,636.354492 
	C863.893555,636.033875 864.669800,636.267029 865.018555,637.590576 
	C864.130859,637.947388 863.351807,637.716980 863.020020,636.354492 
z"/>
<path fill="#D3C6BD" opacity="1.000000" stroke="none" 
	d="
M1037.021484,702.355591 
	C1037.875122,702.027588 1038.646484,702.246033 1039.049316,703.519653 
	C1038.165161,703.939270 1037.381592,703.735291 1037.021484,702.355591 
z"/>
<path fill="#D3C6BD" opacity="1.000000" stroke="none" 
	d="
M757.015503,589.363586 
	C757.878418,589.035889 758.654541,589.259155 759.031250,590.562866 
	C758.147827,590.944946 757.367920,590.725159 757.015503,589.363586 
z"/>
<path fill="#D3C6BD" opacity="1.000000" stroke="none" 
	d="
M645.044312,527.318359 
	C645.916809,527.035645 646.687866,527.286865 647.011597,528.604919 
	C646.117554,528.938904 645.338318,528.697510 645.044312,527.318359 
z"/>
<path fill="#D3C6BD" opacity="1.000000" stroke="none" 
	d="
M655.058594,534.300659 
	C655.930969,534.032898 656.691467,534.299133 657.015869,535.599731 
	C656.116577,535.940186 655.337036,535.694824 655.058594,534.300659 
z"/>
<path fill="#D3C6BD" opacity="1.000000" stroke="none" 
	d="
M662.048401,538.312866 
	C662.926208,538.031921 663.693787,538.291138 664.007935,539.612854 
	C663.110229,539.941772 662.334839,539.691040 662.048401,538.312866 
z"/>
<path fill="#D3C6BD" opacity="1.000000" stroke="none" 
	d="
M630.057617,517.303406 
	C630.920532,517.035522 631.684204,517.290588 632.027466,518.577515 
	C631.130920,518.934326 630.348328,518.700378 630.057617,517.303406 
z"/>
<path fill="#D3C6BD" opacity="1.000000" stroke="none" 
	d="
M697.031128,559.343018 
	C697.880920,559.029663 698.648682,559.254700 699.049438,560.517944 
	C698.161621,560.938599 697.381836,560.727112 697.031128,559.343018 
z"/>
<path fill="#D3C6BD" opacity="1.000000" stroke="none" 
	d="
M716.039062,569.332397 
	C716.888000,569.029114 717.651184,569.259766 718.051941,570.511963 
	C717.162903,570.935120 716.378845,570.729614 716.039062,569.332397 
z"/>
<path fill="#D3C6BD" opacity="1.000000" stroke="none" 
	d="
M735.057068,579.305420 
	C735.915894,579.025879 736.681702,579.266968 737.045715,580.540527 
	C736.141846,580.941406 735.357178,580.720764 735.057068,579.305420 
z"/>
<path fill="#D3C6BD" opacity="1.000000" stroke="none" 
	d="
M746.031860,584.337891 
	C746.894775,584.033630 747.668213,584.266052 748.034302,585.562073 
	C747.139709,585.946716 746.362244,585.716003 746.031860,584.337891 
z"/>
<path fill="#D3C6BD" opacity="1.000000" stroke="none" 
	d="
M749.060059,586.301575 
	C749.916931,586.025940 750.679260,586.270020 751.047913,587.533936 
	C750.145874,587.936523 749.359314,587.719727 749.060059,586.301575 
z"/>
<path fill="#D3C6BD" opacity="1.000000" stroke="none" 
	d="
M917.017456,658.363403 
	C917.872864,658.032654 918.646057,658.251099 919.043762,659.533325 
	C918.157166,659.949036 917.378967,659.734558 917.017456,658.363403 
z"/>
<path fill="#D3C6BD" opacity="1.000000" stroke="none" 
	d="
M762.049316,592.317749 
	C762.900085,592.026978 763.664612,592.262878 764.050293,593.523743 
	C763.155090,593.935913 762.373413,593.719604 762.049316,592.317749 
z"/>
<path fill="#D3C6BD" opacity="1.000000" stroke="none" 
	d="
M779.022766,600.352783 
	C779.880676,600.030457 780.651489,600.256165 781.042969,601.536865 
	C780.154907,601.944458 779.372253,601.733276 779.022766,600.352783 
z"/>
<path fill="#D3C6BD" opacity="1.000000" stroke="none" 
	d="
M808.051208,613.312256 
	C808.913574,613.028137 809.682129,613.269531 810.037964,614.556763 
	C809.136902,614.942505 808.354614,614.715210 808.051208,613.312256 
z"/>
<path fill="#D3C6BD" opacity="1.000000" stroke="none" 
	d="
M812.024658,615.350708 
	C812.877563,615.031677 813.646484,615.257324 814.045349,616.528198 
	C813.159668,616.941162 812.378662,616.729675 812.024658,615.350708 
z"/>
<path fill="#D3C6BD" opacity="1.000000" stroke="none" 
	d="
M833.015137,624.362976 
	C833.881042,624.032288 834.656799,624.257019 835.031494,625.563477 
	C834.146179,625.946655 833.366333,625.725891 833.015137,624.362976 
z"/>
<path fill="#D3C6BD" opacity="1.000000" stroke="none" 
	d="
M638.057861,523.303467 
	C638.922546,523.025696 639.688110,523.274048 640.036011,524.562378 
	C639.136658,524.935242 638.351868,524.708252 638.057861,523.303467 
z"/>
<path fill="#D3C6BD" opacity="1.000000" stroke="none" 
	d="
M881.012207,644.370972 
	C881.860901,644.029602 882.633362,644.238342 883.054382,645.503418 
	C882.173645,645.943115 881.391357,645.745117 881.012207,644.370972 
z"/>
<path fill="#D3C6BD" opacity="1.000000" stroke="none" 
	d="
M906.054565,654.310059 
	C906.910767,654.029541 907.677490,654.267578 908.043945,655.540405 
	C907.141907,655.943115 906.359314,655.721069 906.054565,654.310059 
z"/>
<path fill="#EFE1D8" opacity="1.000000" stroke="none" 
	d="
M926.658203,16.042414 
	C925.164734,21.093666 920.526917,23.771622 917.004944,27.338131 
	C912.878845,31.516558 908.143738,35.093578 903.324951,38.957050 
	C903.155762,36.331085 905.357483,35.089184 906.986511,33.576382 
	C913.355652,27.661634 919.859192,21.891571 926.658203,16.042414 
z"/>
<path fill="#EFE1D8" opacity="1.000000" stroke="none" 
	d="
M892.654663,47.039341 
	C893.001892,49.122612 891.371582,50.200783 890.072876,51.393845 
	C883.306335,57.610020 876.477722,63.758667 869.322937,69.955856 
	C870.767334,65.082191 875.214722,62.450672 878.638733,59.017620 
	C882.903137,54.741806 887.726807,51.023693 892.654663,47.039341 
z"/>
<path fill="#EFE1D8" opacity="1.000000" stroke="none" 
	d="
M784.654297,142.039307 
	C784.242981,146.104553 780.443054,147.379471 777.788147,149.668808 
	C773.586487,153.291824 769.744995,157.397842 764.331360,159.956055 
	C764.095520,156.894409 767.092957,156.324875 768.826233,154.827103 
	C773.881470,150.458664 778.588013,145.636795 784.654297,142.039307 
z"/>
<path fill="#EFE1D8" opacity="1.000000" stroke="none" 
	d="
M749.653320,171.043350 
	C748.980164,175.648132 744.339172,176.768890 741.478210,179.595413 
	C738.938721,182.104294 735.643066,183.847855 732.329773,185.955902 
	C731.983093,184.717087 732.592651,183.731598 733.546814,183.003906 
	C738.785950,179.008316 744.049255,175.044373 749.653320,171.043350 
z"/>
<path fill="#EFE1D8" opacity="1.000000" stroke="none" 
	d="
M693.653503,214.044281 
	C693.197754,218.266068 688.870972,219.188843 686.379272,221.850342 
	C684.012390,224.378555 680.613220,225.940308 677.315186,227.950104 
	C676.967957,226.526138 677.746460,225.390945 678.844788,224.706039 
	C683.940369,221.528442 687.888000,216.800507 693.653503,214.044281 
z"/>
<path fill="#EFE1D8" opacity="1.000000" stroke="none" 
	d="
M852.653259,84.042358 
	C849.641663,89.439476 844.414062,92.935822 839.320435,96.953735 
	C841.846375,91.053276 847.057373,87.542717 852.653259,84.042358 
z"/>
<path fill="#EFE1D8" opacity="1.000000" stroke="none" 
	d="
M807.650391,123.039734 
	C806.244507,126.722412 802.768372,128.625290 799.323914,130.954849 
	C800.407898,126.932472 803.440613,124.566338 807.650391,123.039734 
z"/>
<path fill="#EFE1D8" opacity="1.000000" stroke="none" 
	d="
M866.656250,71.039230 
	C866.102234,74.423210 863.531677,76.306572 860.332886,77.959702 
	C860.898193,74.586548 863.471497,72.704430 866.656250,71.039230 
z"/>
<path fill="#EFE1D8" opacity="1.000000" stroke="none" 
	d="
M900.658691,40.043716 
	C900.094788,43.426529 897.533508,45.318649 894.317017,46.952408 
	C894.908508,43.593781 897.465759,41.697746 900.658691,40.043716 
z"/>
<path fill="#EFE1D8" opacity="1.000000" stroke="none" 
	d="
M830.652954,103.044296 
	C830.453613,106.654495 827.171509,107.367348 824.329346,108.954941 
	C824.771606,105.605110 827.992554,104.824600 830.652954,103.044296 
z"/>
<path fill="#EFE1D8" opacity="1.000000" stroke="none" 
	d="
M796.654785,132.042938 
	C796.282104,135.462311 793.684448,136.906082 790.340454,137.960907 
	C791.351257,135.224304 793.725525,133.536026 796.654785,132.042938 
z"/>
<path fill="#EFE1D8" opacity="1.000000" stroke="none" 
	d="
M730.654114,186.046387 
	C730.656799,189.204437 727.693176,189.549805 725.329407,190.955490 
	C725.336182,187.809631 728.295471,187.456223 730.654114,186.046387 
z"/>
<path fill="#EFE1D8" opacity="1.000000" stroke="none" 
	d="
M837.657593,97.043365 
	C837.627441,99.597656 835.915100,100.997765 833.326416,101.956505 
	C833.370239,99.414696 835.083252,98.013596 837.657593,97.043365 
z"/>
<path fill="#EFE1D8" opacity="1.000000" stroke="none" 
	d="
M933.635620,10.009529 
	C933.664062,12.596134 931.918213,13.979187 929.330139,14.960491 
	C929.357361,12.414554 931.091309,11.026988 933.635620,10.009529 
z"/>
<path fill="#EFE1D8" opacity="1.000000" stroke="none" 
	d="
M762.659302,160.045410 
	C762.621704,162.595596 760.914307,163.999985 758.323730,164.956116 
	C758.369812,162.414291 760.078552,161.009064 762.659302,160.045410 
z"/>
<path fill="#EFE1D8" opacity="1.000000" stroke="none" 
	d="
M675.655396,228.039856 
	C675.852905,230.740952 673.654541,231.209885 671.327759,231.953796 
	C671.462708,229.615768 673.525818,228.996948 675.655396,228.039856 
z"/>
<path fill="#EFE1D8" opacity="1.000000" stroke="none" 
	d="
M660.659241,239.043610 
	C660.824280,241.115189 659.609924,242.329712 657.329956,242.956787 
	C657.164978,240.886414 658.390198,239.679382 660.659241,239.043610 
z"/>
<path fill="#EFE1D8" opacity="1.000000" stroke="none" 
	d="
M857.660278,79.046440 
	C857.829163,81.110008 856.612244,82.317528 854.357544,82.969627 
	C854.157410,80.886986 855.390076,79.687569 857.660278,79.046440 
z"/>
<path fill="#EFE1D8" opacity="1.000000" stroke="none" 
	d="
M665.660400,235.045898 
	C665.822083,237.118622 664.607178,238.333969 662.321655,238.955475 
	C662.174072,236.894760 663.391907,235.680405 665.660400,235.045898 
z"/>
<path fill="#EFE1D8" opacity="1.000000" stroke="none" 
	d="
M656.606445,242.982330 
	C656.163940,244.869720 654.383911,245.355164 652.327515,245.961975 
	C652.179199,243.263809 654.061707,242.922852 656.606445,242.982330 
z"/>
<path fill="#EFE1D8" opacity="1.000000" stroke="none" 
	d="
M709.674438,202.040924 
	C709.881348,204.073456 708.722839,204.990372 706.375244,205.003387 
	C706.721558,203.569778 707.712097,202.452362 709.674438,202.040924 
z"/>
<path fill="#EFE1D8" opacity="1.000000" stroke="none" 
	d="
M714.662354,198.041580 
	C714.936523,199.560379 714.252502,200.609039 712.320435,200.956726 
	C712.057678,199.447052 712.743042,198.398087 714.662354,198.041580 
z"/>
<path fill="#EFE1D8" opacity="1.000000" stroke="none" 
	d="
M669.662598,232.043213 
	C669.934570,233.562302 669.251526,234.611710 667.317627,234.955139 
	C667.058167,233.445892 667.740173,232.394363 669.662598,232.043213 
z"/>
<path fill="#EFE1D8" opacity="1.000000" stroke="none" 
	d="
M820.649170,112.017899 
	C820.944946,113.543617 820.266663,114.602066 818.318848,114.955666 
	C818.055542,113.449020 818.741577,112.398933 820.649170,112.017899 
z"/>
<path fill="#EFE1D8" opacity="1.000000" stroke="none" 
	d="
M705.664673,205.040314 
	C705.934631,206.558990 705.254333,207.612930 703.315552,207.954330 
	C703.057617,206.443710 703.745056,205.395081 705.664673,205.040314 
z"/>
<path fill="#EFE1D8" opacity="1.000000" stroke="none" 
	d="
M816.666260,115.048706 
	C816.933105,116.569801 816.245850,117.616768 814.309326,117.952744 
	C814.061218,116.446335 814.744568,115.394417 816.666260,115.048706 
z"/>
<path fill="#EFE1D8" opacity="1.000000" stroke="none" 
	d="
M754.661255,167.040924 
	C754.939148,168.560730 754.256042,169.609421 752.323669,169.957855 
	C752.056458,168.446457 752.744141,167.400223 754.661255,167.040924 
z"/>
<path fill="#EFE1D8" opacity="1.000000" stroke="none" 
	d="
M646.677979,250.030121 
	C646.932800,251.476410 646.076355,252.030396 644.357666,251.998474 
	C644.438477,250.927734 645.187378,250.235168 646.677979,250.030121 
z"/>
<path fill="#EFE1D8" opacity="1.000000" stroke="none" 
	d="
M701.682495,208.051178 
	C701.929932,208.934616 701.668274,209.712814 700.295959,209.947678 
	C700.059143,209.071014 700.325317,208.295013 701.682495,208.051178 
z"/>
<path fill="#EFE1D8" opacity="1.000000" stroke="none" 
	d="
M697.678467,211.041809 
	C697.930603,211.922104 697.675232,212.703613 696.306396,212.952789 
	C696.056396,212.074371 696.319153,211.297150 697.678467,211.041809 
z"/>
<path fill="#D3C6BD" opacity="1.000000" stroke="none" 
	d="
M664.921753,526.748352 
	C658.166565,523.967102 652.321594,519.344055 646.013123,515.476685 
	C635.575378,509.077820 625.888611,501.586151 615.933716,494.484589 
	C613.101929,492.464417 610.371643,490.357178 607.859497,487.533844 
	C613.196655,487.114288 615.935181,491.843994 619.571350,494.483643 
	C629.573059,501.744324 639.770142,508.684418 649.985962,515.627380 
	C655.048523,519.068054 661.658813,520.448059 664.921753,526.748352 
z"/>
<path fill="#D3C6BD" opacity="1.000000" stroke="none" 
	d="
M528.963135,417.699280 
	C518.424622,410.087189 510.771332,399.379059 501.920074,389.433563 
	C507.103027,390.746277 509.586609,395.591461 513.290039,398.995056 
	C518.311951,403.610504 522.011047,409.503296 527.295288,413.897461 
	C528.365051,414.786987 529.077942,415.859650 528.963135,417.699280 
z"/>
<path fill="#D3C6BD" opacity="1.000000" stroke="none" 
	d="
M606.938843,486.728638 
	C601.971985,483.716125 596.682800,480.750214 592.816406,475.566010 
	C598.507019,477.623505 603.590210,480.890808 606.938843,486.728638 
z"/>
<path fill="#D3C6BD" opacity="1.000000" stroke="none" 
	d="
M591.934204,474.737854 
	C586.968384,472.076080 582.270691,468.749878 578.820374,463.554657 
	C584.145142,465.756012 588.546875,469.470428 591.934204,474.737854 
z"/>
<path fill="#D3C6BD" opacity="1.000000" stroke="none" 
	d="
M576.920898,461.759155 
	C572.944519,460.136169 569.771973,457.193115 566.830933,453.544373 
	C571.469177,454.297974 574.576660,457.381897 576.920898,461.759155 
z"/>
<path fill="#D3C6BD" opacity="1.000000" stroke="none" 
	d="
M544.971558,433.690430 
	C542.163391,432.092194 539.716492,429.793701 537.816162,426.556213 
	C541.720642,426.992676 543.925415,429.575958 544.971558,433.690430 
z"/>
<path fill="#D3C6BD" opacity="1.000000" stroke="none" 
	d="
M562.925903,449.749756 
	C560.391174,449.702454 559.060669,447.889801 557.838745,445.532654 
	C560.696472,445.105286 561.909241,447.132629 562.925903,449.749756 
z"/>
<path fill="#D3C6BD" opacity="1.000000" stroke="none" 
	d="
M552.921204,440.753601 
	C550.872314,440.895691 549.706848,439.605377 548.840088,437.529327 
	C551.133911,436.984344 552.276428,438.369415 552.921204,440.753601 
z"/>
<path fill="#D3C6BD" opacity="1.000000" stroke="none" 
	d="
M535.921448,424.756836 
	C533.848877,424.878693 532.672546,423.598663 531.927979,421.424500 
	C534.154175,421.069397 535.317810,422.398193 535.921448,424.756836 
z"/>
<path fill="#D3C6BD" opacity="1.000000" stroke="none" 
	d="
M669.935181,529.703125 
	C668.299622,529.911865 666.869263,529.355286 665.851318,527.550049 
	C667.687561,526.839355 669.312683,527.073364 669.935181,529.703125 
z"/>
</svg>